<?xml version="1.0" encoding="utf-8"?>
<!-- Generator: Adobe Illustrator 19.1.0, SVG Export Plug-In . SVG Version: 6.00 Build 0)  -->
<svg version="1.1" id="Group_1_xA0_Imagem_1_" xmlns="http://www.w3.org/2000/svg" xmlns:xlink="http://www.w3.org/1999/xlink"
	 x="0px" y="0px" viewBox="0 0 353.8 135.8" style="enable-background:new 0 0 353.8 135.8;" xml:space="preserve">
<style type="text/css">
	.st0{fill:#FFFFFF;}
</style>
<path class="st0" d="M111.6,129.4c1.2-2,2.4-4,3.7-6c1.6-2.5,3.2-5.1,4.9-7.6c0.9-1.4,2.1-2.5,2.8-4.1c0.9-2.2,2.1-4.3,3.2-6.5
	c1-2,2.8-2.2,4.7-1.9c3.3,0.4,6.7,0.7,10.1,0.5c3.8-0.2,7.6,0.1,11.5,0.1c0.9,0,1,0.7,1,1.3c0,1.4,0.6,2.6,1.2,3.8
	c2.5,4.7,4.8,9.5,7.2,14.2c1,2,1.9,4.1,2.9,6.1c-1.4,0-2.7,0-4.1,0c0-0.2,0-0.4-0.1-0.6c-2.5-6-5.3-11.8-9.1-17
	c-1.1-1.6-2.5-2.5-4.4-2.6c-5.6-0.2-11.1-0.5-16.7-0.7c-2-0.1-3.6,0.6-4.4,2.6c-0.3,0.7-0.7,1.3-1,1.9c-3.4,5.5-6.9,10.9-10.3,16.4
	C113.5,129.4,112.6,129.4,111.6,129.4z"/>
<path class="st0" d="M65,129.4h4.8c-0.2-0.6-0.4-1.1-0.5-1.7c-1-5-3.3-9.4-5.5-13.9c-1.8-3.7-3.6-7.4-5.2-11.1
	c-0.2-0.4-0.4-0.7-0.6-1c-1.9-0.4-3.9-0.6-5.8-0.5c-0.1,0-0.1,0-0.1,0c-1,0-1.9,0.1-2.9,0.2c-0.9,0-1.8,0.1-2.6,0.1
	c-0.2,0-0.3,0.1-0.5,0.1c-0.3,0-0.6,0-0.9,0c-1,0-2.1,0-3.1,0c0-0.1,0-0.1,0-0.2c-0.3,0-0.7,0-1,0c-2.1,0-4.2-0.1-6.3-0.5
	c0,0-0.1,0-0.1,0.1c-0.1,0-0.1,0-0.1,0c-0.2-0.1-0.3-0.1-0.5-0.1c-0.8-0.1-1.6,0-2.4-0.1c-2.1-0.4-3.1,0.1-3.9,2
	c-0.3,0.7-0.6,1.5-0.7,2.3c-0.6,3.4-2.1,6.4-3.5,9.5c-1.4,3.1-3,6.1-4.4,9.2c-0.1,0.3-0.3,0.5-0.4,0.6c-0.4,1-0.8,1.9-1.3,2.8
	c0,0,0,0,0,0.1c-0.3,0.8-0.6,1.5-0.9,2.3h4c0.7-1.7,1.9-3.1,2.6-4.8c0.7-1.7,1.7-3.3,2.4-5.1c0.4-1,0.6-2,1-3
	c1.1-2.3,2.3-4.6,2.7-7.3c0.5-3.7,2.4-6,7.2-5.1c2.1,0.4,4.2,1,6.3,0.9c3.2-0.1,6.5-0.5,9.7-0.9c2.2-0.3,3.5,0,4.7,1.9
	c1.5,2.5,3.1,4.9,4.5,7.4c1.3,2.3,2.5,4.7,3.7,7c0.7,1.4,1.1,2.9,1.6,4.3c0.1,0.5,0.1,1.1-0.1,1.5C66.1,127.3,65.6,128.3,65,129.4z"
	/>
<path class="st0" d="M119.3,129.4c2.6-3.6,5.1-7.2,7.7-10.8c1.1-1.4,2.3-2.8,3.3-4.2c1-1.3,2.5-1.5,3.8-1.4c2.8,0.2,5.6,0.8,8.5,1
	c1.6,0.2,3.2-0.2,4.4-1.6c0.9,1.4,1.8,2.9,2.8,4.2c1.5,2.1,3.1,4.2,4.6,6.3c1.5,2.1,2.8,4.3,4.3,6.5c-1.6,0-3.2,0-4.8,0
	c-0.2-0.8-0.2-1.8-0.7-2.4c-0.8-1-2-1.6-2.8-2.6c-1.5-1.8-2.7-3.8-5.3-4.3c-3.8-0.6-7.6-1.4-11.4-2c-0.8-0.1-2,0.3-2.5,0.9
	c-2,2.4-3.9,4.9-5.8,7.4c0,0.1-0.1,0.1-0.1,0.2c0.1,1.3-1,1.6-1.8,2.2c-0.2,0.2-0.4,0.3-0.6,0.5
	C121.7,129.4,120.5,129.4,119.3,129.4z"/>
<path class="st0" d="M30.9,121.5c-1.6,0.9-2.5,2.2-2.2,3.5c0.1-0.1,0.2-0.3,0.3-0.4C29.6,123.5,30.2,122.4,30.9,121.5z"/>
<path class="st0" d="M62.3,125.3c-0.8-1.9-1.8-3.7-2.8-5.5c-0.2-0.4-0.6-0.8-0.8-1.3c-0.7-1.6-1.3-3.2-1.9-4.9
	c-0.3-0.9-0.7-1.8-1.3-2.6c-0.9-0.5-2-1.1-3-1c-0.1,0-0.2,0-0.2,0c-3.8,0.5-8.1-0.1-11.9-0.3c-2.2-0.1-6.5-0.8-7.4,1.8
	c0,0.1,0,0.1,0,0.2c-0.2,0.4-0.4,0.8-0.6,1.2c0,0,0,0,0,0c-1.1,2.3-2.3,4.5-3.7,6.6c-0.9,1.3-2.1,2.5-2.8,4.1
	c-0.4,0.8-0.5,1.8-1.1,2.4c-0.9,1-0.8,2.1-0.8,3.2h3.8c0-0.2,0-0.4,0.1-0.5c0,0,0,0,0-0.1c0.1-1.3,0.4-2.6,1-3.7c0-0.1,0-0.2,0-0.3
	c0.7-1.5,1.6-2.8,2.7-4.1c0,0,0,0,0,0v-0.1c0.5-0.5,0.9-0.7,1.2-1.1c1.2-1.6,2.4-3.2,3.5-4.8c0.4-0.6,0.8-0.8,1.5-0.8
	c2.6,0.2,5.2,0.4,7.8,0.5c2.2,0.1,4.4,0.2,6.7,0.3c1.1,0,1.9,0.1,2.5,1.3c0.9,1.7,2.2,3.2,3.3,4.8c0.3,0.5,0.6,2.9,0.3,3.4
	c-1,1.7-2,3.4-3,5.1H61c0.2-0.3,0.3-0.6,0.5-0.9C62,127.5,62.8,126.5,62.3,125.3z"/>
<path class="st0" d="M17.4,102.3c0.1,0,0.2,0,0.3-0.1c-3.5-5.9-7-11.7-10.5-17.6c-0.3,0.5-0.5,0.9-0.7,1.2c-0.9,1.5-1.8,2.9-2.7,4.4
	V91c0.8-0.2,1.4,0.2,1.9,0.8c2,2.6,4.1,5.2,6.1,7.9c0.5,0.6,0.7,1.4,0.3,2.3c-0.5,1.2-0.9,2.4-1.4,3.7c-1.7,4.5-3.3,9-5,13.4
	c-0.5,1.4-0.5,1.6,0.9,2.3c0.1,0,0.2-0.1,0.2-0.1c1.6-3.1,3.1-6.2,4.6-9.3c0.1,0,0.1-0.1,0.2-0.2c0.6-1,1.1-2,1.7-2.9
	C14.8,106.8,16.2,104.6,17.4,102.3C17.4,102.4,17.4,102.4,17.4,102.3z"/>
<path class="st0" d="M3.8,26.6c0.7-1.5,1.7-2.8,3.5-3.1c0.1,0.1,0.2,0.3,0.2,0.5c0.3,1.9,1.2,3.4,2.3,5c2.5,3.5,3.9,7.5,2.8,11.8
	c-0.9,3.1-2.5,6.1-4,9c-0.6,1.2-1.7,2.1-2.7,3.1C5.6,53.1,5,53,4.6,53.1c0-0.4-0.1-0.8,0-1.2c1.5-3.3,3-6.6,4.4-10
	c0.3-0.7,0.1-1.6,0-2.4c-0.4-2.5-1.5-4.7-2.7-6.9c-0.9-1.6-1.6-3.4-2.5-5C3.8,27.3,3.8,27,3.8,26.6z"/>
<path class="st0" d="M51.8,128.6c0.5-1.7,1-3.5,1.6-5.1c0-0.1,0-0.3,0-0.4c0.3-1.7,0.3-3.4-0.1-5.1c-0.1-0.4-0.4-0.4-0.7-0.3
	c-0.2-0.1-0.4-0.1-0.5,0c0,0,0,0,0,0c-1.4,0.4-2.6,0.8-3.8,1c-3.5,0.5-7,1-10.5,1.4c-1.1,0.1-1.4,0.9-1.6,1.6
	c-1.2,1.9-2.9,3.8-3.9,5.9c-0.4,0.5-0.7,1.1-0.9,1.8h0.2c0,0,0,0,0,0c0.5-0.1,0.9-0.1,1.4-0.1c0.1,0,0.2,0,0.2,0.1h2.5
	c1.5-1.8,2-4.3,3.8-5.9c0.8-0.7,1.6-1,2.7-1.1c2.1-0.2,4.1-0.5,6.2-0.8c0.5-0.1,0.9-0.1,1.8-0.1c-1.2,3-1.2,6.2-4.1,8h4.2
	c0,0,0,0,0,0c0,0,0,0,0,0c0.4-0.1,0.8-0.2,1.3-0.2c0-0.1,0.1-0.3,0.1-0.4C51.8,128.7,51.8,128.7,51.8,128.6z"/>
<path class="st0" d="M129.6,129.4c0.9-1.6,1.9-3.1,2.8-4.7c1.8-2.9,2.9-3.4,6.3-2.6c1.3,0.3,2.7,0.6,4.1,0.8
	c0.9,0.1,1.9-0.2,2.7-0.2c1.5,2.2,3.1,4.5,4.6,6.7c-1.2,0-2.4,0-3.6,0c-0.1-0.6-0.4-1-1-1.2c-3.1-1-6.1-2.1-9.2-3.2
	c-0.3-0.1-0.8-0.1-0.9,0.1c-1,1.4-1.9,2.9-2.8,4.3C131.7,129.4,130.6,129.4,129.6,129.4z"/>
<path class="st0" d="M6.7,39.9c0-0.3-0.1-0.6-0.2-0.9c0-0.1,0-0.2,0-0.3c-0.3-1.1-0.8-2.2-1.5-3.2c-0.2-0.3-0.5-0.3-0.7-0.1
	c-0.2,0-0.5,0.1-0.6,0.3c-0.4,2.3-0.6,4.7-0.9,7c0,0.3,0.2,0.4,0.4,0.5c0,0.2,0,0.4,0.2,0.6C3.8,44,4,44,4.3,43.8
	c0.2-0.1,0.3-0.3,0.2-0.5c0.4-0.3,1.1-0.6,1.3-0.8c0.3-0.2,0.4-0.2,0.6-0.5C6.8,41.4,6.8,40.5,6.7,39.9z"/>
<path class="st0" d="M241.9,7c2,1.4,4.3,0.8,6.5,0.9c0.4,0,0.9,0.1,1.3,0.1c0,0.2,0,0.4,0,0.6c-0.8,0.1-1.6,0.2-2.4,0.3
	c-1.3,0.1-2.7,0.1-4,0.1c-1.4,0.1-1.9-0.5-1.6-2C241.8,7,241.8,7,241.9,7z"/>
<path class="st0" d="M75.7,128.7c-1.5-3.3-3.1-6.7-4.8-10.1c-0.7-1.4-1.9-2.5-2.6-3.9c-1.3-2.4-2.4-4.8-3.5-7.3
	c-1.4-3-2.8-6.1-4-9.2c-0.4-1,0-2.4,0.2-3.5c0.8-3.6,2.4-6.9,4.4-10c3.7-5.9,7.4-11.8,11.1-17.6c0.3-0.5,1.1-0.9,1.7-0.8
	c3.5,0.1,7,0.1,10.5,0.4c4,0.4,7.9,0.1,11.8-0.3c1.4-0.1,2.9,0.1,4.2,0.4c0.6,0.1,1.3,0.9,1.5,1.5c1.4,3.3,2.5,6.7,4.1,9.8
	c3,6,6.4,11.9,9.4,17.9c0.9,1.8,1.6,3.8,2.2,5.8c0.3,0.9,0.2,2-0.7,2.5c-2.1,1.2-2.8,3.4-4.1,5.1c-3,3.9-4.7,8.6-7.3,12.8
	c-1.3,2.1-2.9,4-4.5,5.8c-0.4,0.5-1.4,0.8-2.1,0.8c-4,0.1-8,0.1-12.1,0c-3.6-0.1-7.1-0.6-10.7-0.7C79,128.1,77.5,128.5,75.7,128.7z
	 M76.6,123.3c0.7-0.1,1.2-0.4,1.7-0.3c3.1,0.2,6.2,0.4,9.3,0.7c2.8,0.2,5.6,0.5,8.4,0.7c1.3,0.1,2.8,0.6,3.9-0.9
	c0.3-0.4,1.1-0.4,1.6-0.5c2.1-0.2,4.2-0.6,5.5-2.4c1.1-1.5,2-3.1,2.8-4.8c1.9-4.2,4.6-8,7.1-11.8c0.9-1.3,1.6-2.7,1.5-4.4
	c-0.1-2.1-1.2-3.7-2.2-5.3c-0.9-1.4-1.8-2.8-2.6-4.2c-0.4-0.6-0.6-1.4-1-2c-1.3-2.1-2.7-4.1-3.8-6.3c-1.4-2.7-2.6-5.6-4-8.4
	c-1.4-2.9-2.6-3.4-5.7-2.8c-2.3,0.5-4.6,1-7.1,0.6c-3.9-0.6-7.7-1.4-11.7-1.1c-1,0.1-1.9,0.4-2.5,1.2c-0.5,0.7-1,1.3-1.4,2.1
	c-1.7,2.9-3.4,5.8-5.1,8.7c-2.2,3.8-4.4,7.5-6.5,11.3c-0.8,1.5-1.2,3.1-0.1,4.7c0.1,0.1,0.1,0.3,0.2,0.4c2,5,3.6,10.1,6.2,14.8
	C73.3,116.6,75,120,76.6,123.3z"/>
<path class="st0" d="M120,34.8c0.5-0.6,0.8-1.1,1.2-1.7c0.4,0.5,0.7,0.9,1.2,1.5c-6.2,10.3-12.3,20.6-18.4,30.8
	c-3.8-0.5-7.6-1.1-11.4-1.6C92,63.7,91.1,64,90.4,64c-3.7,0.1-7.3,0.2-11,0.3c-2.7,0-4.4-1.4-5.2-4c-0.3-0.8-1-1.4-1.5-2.2
	c-1.3-2.3-2.6-4.6-3.8-6.9c-2.3-4.3-4.6-8.5-6.9-12.8c-0.3-0.6-0.9-1.1-1.4-1.4c-1-0.5-0.9-1.3-0.5-2c3.3-5.4,4.8-11.6,8.2-17
	c1.4-2.2,2.9-4.3,4.5-6.3c1-1.3,2.5-1.4,4.1-1.3c2.6,0.2,5.1,0.2,7.7,0.2c1.5,0,3-0.1,4.4-0.1c4.8-0.1,9.7-0.1,14.5-0.1
	c0.7,0,1.5,0.1,2.2,0.2c2.3,0.4,3,1.1,3.3,3.5c0.3,2.4,1.7,4.2,2.8,6.2c2.2,3.9,4.5,7.9,6.7,11.8C119,33.1,119.5,33.9,120,34.8z
	 M105.2,13.8c-4.2,0.4-8.1,0.9-12.1,1c-5,0.2-10,0.1-15,0.1c-1.7,0-3.3,0.3-4.3,1.7c-0.9,1.3-1.9,2.6-2.8,4c-2.7,4.4-4.9,9-6.9,13.8
	c-0.2,0.6-0.2,1.4,0.1,2c0.4,1,1.1,1.8,1.7,2.7c1.3,2.2,2.3,4.6,3.7,6.7c2.8,4.1,5,8.5,8.2,12.3c1.3,1.5,2.3,1.7,3.9,1.4
	c1.8-0.3,3.5-0.5,5.3-0.6c1.8-0.1,3.6,0.2,5.4,0.2c3.1,0,6.3,0.1,9.4,0c1.1-0.1,2.6-0.4,3.2-1.2c2.1-2.9,4-5.9,5.8-9
	c2.1-3.7,3.5-7.8,6.7-10.8c-0.7-1.6-1.3-3.2-2-4.8c-0.2-0.5-0.3-1-0.6-1.4c-0.6-0.8-1.4-1.5-1.9-2.3c-1.6-2.5-3.2-5-4.5-7.7
	C107.1,19.5,104.5,17.4,105.2,13.8z"/>
<path class="st0" d="M68.8,62c0,0,0-0.1-0.1-0.1c-0.7-1.9-1.8-3.5-2.9-5.2c-0.2-0.4-0.5-0.9-0.7-1.3c-0.2-0.4-0.5-0.9-0.7-1.3
	c-0.4-1.1-0.8-2.1-1.2-3.1c-0.1-0.2-0.3-0.3-0.5-0.3c0,0,0,0,0,0c-0.1-0.2-0.4-0.3-0.6-0.2c-0.5-0.9-1.1-1.7-1.7-2.6
	c-0.1-0.1-0.2-0.2-0.3-0.2c-0.2-0.3-0.4-0.6-0.5-0.9c-0.6-1.5-1-3-2.3-4.1c-0.7-1.7-2.3-2.9-4.6-3.5c-1.1-0.3-2.3-0.4-3.4-0.5
	c-5.4-0.1-10.7-0.3-16.1-0.2c-2.1,0-4.2,0.5-5.2,3c-0.9,2.1-2,4.1-3,6.1c-0.7,1.4-1,2.9-2,4.2c-1.6,2-2.9,4.3-4.4,6.4
	c0,0-0.1,0.1-0.1,0.1c-0.2,0-0.4,0-0.5,0.2c0,0.1-0.1,0.1-0.1,0.2c-0.1,0-0.2,0.1-0.3,0.2c0,0.1,0,0.2,0,0.3
	c-0.1,0.1-0.1,0.2-0.2,0.3c-1.1,1.1-2.1,2.3-2.7,3.7c-0.3,0.2-0.6,0.4-0.8,0.5c-0.8,0.5-1.1,1.2-0.6,2.1c0.6,1.1,1.1,2.2,1.6,3.3
	c2,4.5,4.7,8.5,7.6,12.5c2.8,3.8,5.4,7.8,8,11.6c-0.1,0.3,0.2,0.7,0.6,0.6c1.3-0.4,2.6-0.6,4-0.8c2.1,0,4.1-0.1,6.2-0.3
	c0.2,0,0.4-0.2,0.5-0.3c2,0.2,4.1-0.1,6.2-0.2c0.7,0,1.4-0.1,2.1-0.2c1.7-0.2,3.4-0.3,5.2-0.5c0-0.1,0-0.1,0-0.2
	c0.1,0.1,0.3,0.1,0.4,0c0.2,0.1,0.3,0.1,0.5,0c0,0,0.1,0,0.1-0.1c0.1-0.1,0.3-0.3,0.2-0.4c0,0,0-0.1,0-0.1c0,0,0,0.1,0.1,0.1
	c0.2-0.2,0.3-0.4,0.4-0.6c1.4-2.3,2.9-4.6,4.2-6.9c3-5.7,6-11.4,8.9-17.1C70.8,64.4,70.3,63,68.8,62z M66.6,65.6
	c-3.2,7.6-7.9,14.4-12,21.7c-0.5,0.5-1,1-1.5,1.5c-7.6-1.8-15.3-1.1-23.2-0.7c-1.8-2.8-3.7-5.9-5.9-8.8c-2.7-3.6-4-7.8-5.7-11.8
	c-0.1-0.3,0-0.9,0.2-1.2c3.6-3.9,6.5-8.3,9.1-13c1.7-3,3-6.3,4.6-9.4c0.2-0.3,0.3-0.6,0.5-1c0.8-1.5,1.1-1.6,2.7-1.2
	c0.5,0.1,1,0.2,1.5,0.2c4.7,0.2,9.3-0.6,13.9-1.2c0.7-0.1,1.4-0.1,2-0.1c1.1,1.7,2.3,3.4,3.3,5.1c1.4,2.3,3.2,4.5,4.1,7
	c1.4,3.8,4.2,6.7,6.2,10.1C67,63.8,67.1,64.5,66.6,65.6z"/>
<path class="st0" d="M166.2,71.2c-0.1-1.6-0.6-3.1-1.2-4.6c-0.7-1.8-1.7-3.4-2.5-5.1c-2-4.6-3.7-9.4-6-13.9c-1-2-1.6-4.1-2.4-6.2
	c-0.7-1.9-1.8-2.6-3.9-2.7c-1.8,0-3.6,0-5.4-0.2c-4.4-0.4-8.7-1-13.1-1.3c-1.6-0.1-3.3,0.1-4.8,0.6c-1.9,0.6-2.2,2.6-2.9,4.1
	c-1.5,2.9-2.6,6-4.4,8.6c-3.1,4.6-6.6,9-9.7,13.2c0,1,0,1.6,0,2.3c0,0.9-0.4,1.9,0,2.6c0.7,1.5,1.7,2.7,2.6,4.1c1.9,3,3.7,6,5.6,9
	c1,1.5,1.6,3.3,3.3,4.2c1.7,3.8,3.4,7.6,5.2,11.6c1.9-0.2,3.9-0.3,5.9-0.5c2.2-0.2,4.5-0.5,6.7-0.6c4.6-0.1,9.2,0,13.7,0
	c1-1.6,2-3.3,3-4.9c0.7-1,1.6-1.9,2.1-3c0.7-1.5,1-3.2,1.7-4.7c1.6-3.4,2.8-7,5.7-9.7C166,73.6,166.3,72.2,166.2,71.2z M161.9,72.3
	c-0.8,1.2-1.6,2.4-2,3.7c-2,5.9-5.8,10.9-8.6,16.4c-0.3,0.5-0.5,1.1-0.7,1.5c-2.8,0-5.5,0.1-8.3,0c-3.3-0.1-6.6-0.4-9.9-0.6
	c-1.2-0.1-2.5,0.1-3.7,0.2c-0.8,0.1-1.1-0.2-1.4-0.8c-1.4-2.4-2.8-4.8-4.2-7.2c-3.4-6-6.8-12-10.3-17.9c-0.7-1.2-0.5-1.9,0.3-2.9
	c2.1-2.5,4.2-5,6.1-7.7c1.8-2.5,3.4-5.3,5-7.9c0.3-0.5,0.3-1.3,0.5-1.9c0.7-1.6,1.4-3.2,2.3-4.7c1.2-2,2.3-2.4,4.6-1.9
	c0.6,0.1,1.3,0.3,1.9,0.3c0.1,0.1,0.2,0.3,0.4,0.3c0.8,0,1.6,0,2.4,0.1c0,0,0.1,0,0.1,0c0.2,0.1,0.4,0,0.5-0.1
	c1.3,0.5,2.7,0.3,3.9,0.7c0,0,0.1,0.1,0.1,0.1c0.1,0,0.2,0.1,0.3,0.1c0.1,0,0.2,0.1,0.2,0.1c0,0,0,0,0,0c0,0,0.1,0,0.1,0
	c0.1,0.2,0.3,0.4,0.6,0.3c0.2,0,0.3-0.1,0.5-0.1c0.2,0,0.3-0.1,0.3-0.2c0.1,0,0.1,0,0.2,0c2.9-0.1,5.7-0.1,8.6-0.3
	c1-0.1,1.4,0.4,1.7,1.2c1,2.9,2,5.8,3.2,8.6c1.8,4.2,3.6,8.5,5.7,12.5C164,67.1,163.5,69.6,161.9,72.3z"/>
<path class="st0" d="M246.4,78.7c-2,0.9-3.9,1.4-5.9,0.5c-1.1-0.5-2.2-0.9-2.3-2.6c0-1.6,1.2-1.8,2.2-2.2c1-0.4,2.1-0.6,3.2-0.6
	c2.4-0.1,4.7,0,7.1,0c1.1,0,2.1-0.3,3.2-0.3c0.9,0,1.8,0.2,2.6,0.2c1.2,0.1,2.5,0,3.7,0.1c0.7,0.1,1.4,0.2,2,0.5
	c1.8,0.8,3.6,0.8,5.5,0.3c0.5-0.1,1.1-0.2,1.7-0.1c1.9,0.3,3.8,0.6,5.6,1.1c0.8,0.2,1.5,1,2.2,1.5c-0.6,1.4-1.5,1.3-2.3,0.9
	c-0.8-0.4-1.3-0.3-2.2,0c-2.2,0.7-4.3,1.7-6.7,1.6c-1.3-0.1-2.6,0-3.9,0.3c-0.5,0.1-0.9,0.7-1.2,1.2c-0.2,0.3-0.1,0.8-0.1,1.2
	c-0.1,1.2-0.1,2.3-0.2,3.7c0.4-0.1,0.9-0.4,1.5-0.4c2.5-0.1,5-0.1,7.3,0.8c0.3,0.1,0.8,0,1.2,0.1c0.3,0.2,0.6,0.6,0.7,0.9
	c0,0.2-0.5,0.6-0.7,0.6c-1.8,0.2-3.7,0.4-5.5,0.6c-1.1,0.1-2.2,0.3-3.2,0.6c-1.4,0.3-1.8,1-1.4,2.7c0.4,1.8,1,3.6,2.3,5
	c1.4,1.5,3.2,2,5.2,2.3c1.8,0.2,3.5,0.7,5.2,1.1c0.3,0.1,0.7,0.6,0.6,0.7c-0.2,0.3-0.6,0.8-0.9,0.8c-2.4-0.2-4.9,0.5-7.3-0.4
	c-1.4-0.5-2.9-0.6-4.1-0.9c-0.5-1-1-1.8-1.4-2.6c-0.3-0.7-0.5-1.4-0.6-2.1c-0.4-1.5-0.8-3.1-1.2-4.6c0-0.2-0.1-0.4-0.1-0.6
	c0-1.8-0.3-3.7,0.1-5.5c0.3-1.5,0.4-3,0.5-4.5c0-0.2,0.1-0.5,0-0.6c-0.7-1.1-1.3-2.2-1.2-3.6c0-0.1-0.5-0.3-0.7-0.3
	c-1.2,0.1-2.3,0.2-3.5,0.4c-1,0.2-2,0.4-3.2,0.6c1.7,1.7,1.4,3.4,0.9,5.3c-0.4,1.4-0.2,2.8-0.3,4.3c-0.2,5.1-0.3,10.2-0.5,15.3
	c0,0.5-0.6,0.9-0.9,1.3c-0.2-0.4-0.5-0.8-0.6-1.2c-0.8-5.1-0.5-10.3-0.6-15.4c0-0.7,0.1-1.5,0-2.2c-0.1-0.9-0.3-1.8-0.5-2.6
	C247.3,80.8,246.9,79.8,246.4,78.7z"/>
<path class="st0" d="M220,105.4c-2.2,0.7-3.4-0.7-4.6-1.9c-1.9-2-3.7-4.2-5.4-6.3c-1.6-1.9-3.1-3.9-4.6-5.9
	c-0.1-0.1-0.1-0.3-0.2-0.3c-0.6-0.3-1.2-0.6-1.8-0.8c-0.1,0.5-0.3,1-0.4,1.5c-0.2,1.9-0.4,3.7-0.7,5.6c-0.1,1.1-0.4,2.1-0.4,3.2
	c0,0.4,0.4,0.8,0.6,1.2c0.4,0.6,0.8,1.1,0.1,1.8c-0.7,0.6-1.6,0.7-2.1,0.1c-0.6-0.6-1.1-1.5-1.3-2.4c-0.2-1.2-0.2-2.4,0-3.6
	c0.3-2.4,0.7-4.8,1.1-7.2c0-0.2,0.1-0.3,0.1-0.5c0.2-2.1,0.2-4.3,0.5-6.4c0.2-1.9,0.8-3.8,1-5.7c0.1-1.1,0.1-2.2,0.1-3.2
	c0-1.1,0.4-1.6,1.5-2c2.1-0.9,4.2-0.5,6.2-0.5c2.1,0,4.5,2.5,4.8,4.8c0.3,2.3,0.2,4.6,0,6.9c-0.2,1.9-1.6,3-3,3.9
	c-0.7,0.5-0.8,0.8-0.5,1.5c0.5,1.1,0.8,2.3,1.3,3.4c0.9,1.9,2.2,3.7,3,5.7c0.9,2.1,2.2,3.8,3.7,5.4
	C219.5,104.2,219.7,104.8,220,105.4z M209.8,77.4c0-1.5-0.4-1.9-1.6-2c-1.9-0.1-2.7,0.8-2.8,2.8c-0.2,2-0.5,4-0.9,5.9
	c-0.2,0.9,0.2,1.4,0.9,1.4c0.8,0,1.7-0.3,2.5-0.5c1.1-0.3,1.4-1.1,1.4-2.2c0-0.7,0.3-1.3,0.4-2c0.1-0.4,0-0.9-0.1-1.4
	c0-0.4-0.1-0.8,0-1.2C209.6,77.8,209.7,77.5,209.8,77.4z"/>
<path class="st0" d="M344.9,93c0.8,2.1,1.5,3.9,2.2,5.7c0.5,1.5,1.1,3,1.6,4.5c0.1,0.3-0.3,0.8-0.5,1.2c-0.4-0.2-0.9-0.4-1.2-0.7
	c-1.7-1.8-2.2-4.2-3.3-6.3c-0.8-1.5-2.2-2.8-3.3-4.1c-0.2-0.2-0.6-0.3-0.8-0.2c-1.3,0.7-2.6,1.4-3.9,2.1c-0.1,0.1-0.2,0.2-0.4,0.3
	c-1.7,0.6-1.6,2.2-1.9,3.6c-0.2,0.8,0,1.6,0,2.4c0,1.8-0.9,3.2-2.6,3.7c-0.9,0.3-2,0.4-2.8-0.5c-0.9-1.1-1-2.6-0.2-3.5
	c1.2-1.4,1.8-3,2.2-4.7c0.1-0.6-0.3-1.4-0.5-2.1c-0.6-1.3-0.6-2.5,0.4-3.6c0.4-0.4,0.5-0.8-0.1-1.2c-0.1-0.1,0.1-0.8,0.1-0.8
	c1.8,0.2,1.6-1.4,1.8-2.3c0.3-2,0.3-4,0.6-6c0.1-0.8,0.5-1.7,1-2.3c0.7-0.8,0.8-1.7,0.7-2.6c-0.1-0.4,0-0.9-0.1-1.3
	c-0.3-1.2,0.6-1.7,1.4-1.8c0.7-0.2,1.8,0,2.1,0.4c1,1.3,1.8,2.8,2.5,4.3c1,2.1,1.9,4.2,2.7,6.4c0.6,1.6,0.9,3.4,1.1,5.1
	c0.2,1.3,0.9,1.6,1.9,1.7c0.6,0.1,1.3,0,1.9,0c0.8,0,0.9,0.4,0.5,1c-0.4,0.6-0.9,1.2-1.8,1.2C345.8,92.5,345.3,92.8,344.9,93z
	 M336.5,80c-0.3,0.4-0.5,0.5-0.6,0.7c-0.2,1.2-0.3,2.4-0.5,3.6c-0.1,0.8-0.3,1.5-0.4,2.3c-0.2,0.9-0.1,1.6,0.9,2
	c0.9,0.3,1.7,0.8,2.5,1.1c0.2,0.1,0.5,0.1,0.6,0c0.1-0.1,0.1-0.4,0-0.6c-0.5-1.6-1-3.2-1.5-4.8C337.3,82.9,337,81.6,336.5,80z"/>
<path class="st0" d="M260.7,63.1c-1.8,0.7-2.9-0.3-3.9-1.2c-0.8-0.7-1.3-1.6-1.9-2.4c-1.8-2.1-3.8-4.2-5.6-6.4
	c-1-1.2-1.9-2.5-2.9-3.8c-0.2-0.3-0.4-0.5-0.7-0.7c-0.4-0.3-0.9-0.5-1.3-0.7c-0.2,0.5-0.5,1-0.6,1.5c-0.3,1.8-0.7,3.6-0.7,5.4
	c0,1.6-0.6,3.4,0.4,5c0.2,0.4,0,1.4-0.3,1.6c-0.5,0.2-1.4,0.2-1.8-0.1c-1.1-0.7-1.6-1.7-1.5-3c0.2-2.2,0.2-4.4,0.4-6.5
	c0.2-1.4,0.7-2.7,1-4.1c0-0.2,0-0.3,0.1-0.5c0.3-3.4,0.5-6.7,0.8-10.1c0.1-1.1,0.5-2.2,0.7-3.3c0.1-0.3,0-0.7-0.1-1
	c-0.5-0.9,0.1-1.7,0.6-2c0.9-0.5,2-0.8,3.1-1c1.1-0.2,2.2,0,3.2,0c2.4-0.1,3.8,1.1,4.9,3.1c1,2.1,1.4,4.3,1.1,6.5
	c-0.2,1.4-0.6,2.9-1.3,4.1c-0.4,0.8-1.5,1.3-2.2,2.1c-0.3,0.3-0.5,0.9-0.4,1.2c1.1,2.5,2.3,5,3.5,7.5c0.2,0.5,0.7,0.9,0.8,1.5
	c0.7,2.5,2.4,4.3,4.1,6.1C260.3,62.4,260.5,62.8,260.7,63.1z M245,41.9c0.2,0.4,0.4,1.3,0.7,1.3c0.9,0,1.9-0.1,2.8-0.5
	c1-0.4,1.5-1.3,1.4-2.5c-0.1-1.6,0.1-3.2,0.3-4.8c0.3-2,0.1-2.4-1.9-2.4c-0.1,0-0.2,0-0.4,0c-1.1,0-1.7,0.4-1.8,1.6
	c-0.1,1.6-0.4,3.3-0.7,4.9C245.4,40.3,245.2,41,245,41.9z"/>
<path class="st0" d="M313.8,47.9c-0.2-0.5-0.4-0.8-0.5-1.2c0.3-0.1,0.6-0.2,0.9-0.4c0.2-0.1,0.6-0.2,0.7-0.4c0.2-1,0.3-2,0.6-3
	c0.7-1.9,0.3-3.8,0.6-5.7c0.1-0.8,0.8-1.5,1.1-2.2c0.2-0.6,0.5-1.4,0.3-2c-0.4-1.6-0.2-2.4,1.1-3c1.2-0.6,2.4-0.3,3.2,1
	c0.7,1.2,1.3,2.5,1.9,3.8c0.7,1.6,1.3,3.2,1.9,4.8c0.4,1.2,0.6,2.4,1,3.6c0.4,1.3,0.7,2.5,1.2,3.7c0.2,0.4,0.9,0.8,1.5,0.9
	c0.9,0.1,1.8,0,2.8,0c-0.3,1.3-1,1.9-2,2.2c-1.3,0.4-1.4,0.7-1,1.9c0.9,2.1,1.7,4.3,2.5,6.5c0.2,0.7,0.3,1.4,0.8,1.9
	c0.6,0.7,0.3,1.2-0.3,1.4c-0.4,0.1-1.1-0.1-1.4-0.4c-0.9-1.4-1.8-2.8-2.4-4.4c-0.7-2.2-2-3.9-3.5-5.6c-0.5-0.6-1.2-0.9-2.4-0.5
	c-1.4,0.5-2.4,1.5-3.6,2.2c-1.4,0.7-1.4,2.2-1.6,3.5c-0.2,1.3,0.1,2.6-0.5,3.8c-0.7,1.4-2.4,2.6-3.9,2.4c-1-0.1-1.5-0.8-1.6-1.8
	c-0.3-1.8,0.8-3.1,1.6-4.4c0.9-1.5,1.2-3,0.3-4.6C312.4,51.1,312.7,49.5,313.8,47.9z M322.6,47.7c0-0.2,0.1-0.6,0-0.9
	c-0.7-2.7-1.5-5.5-2.3-8.2c-0.1-0.2-0.3-0.5-0.5-0.5c-0.2,0-0.5,0.3-0.5,0.5c-0.2,1.5-0.4,3.1-0.6,4.7c0,0.4-0.1,0.8-0.2,1.2
	c-0.2,1,0.1,1.6,1.1,1.9C320.6,46.7,321.5,47.2,322.6,47.7z"/>
<path class="st0" d="M164.5,10.4c0,0.5,0.1,1.1-0.1,1.5c-2.5,4.7-5.1,9.4-7.7,14c-0.6,1.1-1.7,2-2.5,3.1c-0.8,1.2-1.5,2.4-2.3,3.6
	c-0.4,0.6-0.7,1.3-1.2,2.1c-0.8-0.5-1.5-1.2-2.3-1.5c-0.9-0.3-1.9-0.3-2.9-0.3c-4.9-0.2-9.7-0.4-14.6-0.6c-1.4-0.1-2.8-0.3-4.1-0.4
	c-1.4-0.1-2.1-1.2-2.7-2.1c-1.7-2.5-3.2-5.2-4.8-7.8c-2.1-3.4-4.3-6.8-6.4-10.1c-0.1-0.2-0.2-0.4-0.4-0.7c0.9,0.1,1.6,0.1,2.4,0.1
	c0.1-0.5,0.3-0.9,0.4-1.4c1.5,1.6,3.3,2.6,4.3,4.7c0.9,2,2.6,3.6,4,5.3c1.7,2.2,3.4,4.5,5.2,6.7c0.3,0.3,0.7,0.7,1.1,0.7
	c2.8,0.3,5.7,0.8,8.5,0.7c3.8-0.2,7.4,0.3,11.1,0.7c1.8,0.2,2.9-0.9,3.7-2.1c1.8-2.8,3.5-5.7,5.3-8.5c1.3-2.1,2.6-4.2,3.9-6.2
	c0.4-0.6,1.1-1.1,1.7-1.6C164.2,10.3,164.3,10.4,164.5,10.4z"/>
<path class="st0" d="M290.8,35.7c0,1,0.1,1.8,0,2.5c-0.1,0.4-0.4,1-0.7,1.2c-0.3,0.1-0.9-0.1-1.3-0.3c-0.5-0.3-0.9-0.7-1.2-1.1
	c-1.9-2.4-5.5-1-7,0.8c-1.1,1.2-0.3,3.4,1.3,4.3c1.9,1.2,3.9,2.5,5.5,4.1c1.7,1.6,2.6,3.9,2.5,6.2c-0.2,3.4-2.3,6.6-6.3,6.5
	c-1.1,0-2.2-0.1-3.3-0.4c-0.4-0.1-0.7-0.7-1-1.1c0.5-0.1,1.1-0.4,1.5-0.2c2.2,1.1,4.9,0.2,6.2-1.8c1.2-1.9,1-3.4,0.1-5.4
	c-1-2.4-2.8-3.4-4.7-4.6c-1.3-0.9-2.7-1.7-3.9-2.7c-2.2-1.9-2.1-5-0.3-7.1c1.5-1.7,3.1-3.1,5.6-2.8c0.4,0,0.8-0.2,1.2-0.4
	c2.6-1.2,3.1-1.1,4.8,1c1-2.1,2.8-2.8,5-2.8c2.7-0.1,5.4,0,8,0c1.1,0,2.2-0.3,3.3-0.4c0.4,0,0.9-0.1,1.3,0c1.6,0.1,3.2,0.2,4.7,0.5
	c0.9,0.1,1.7,0.5,2.5,0.8c0.3,0.1,0.6,0.7,0.5,0.9c-0.1,0.3-0.5,0.7-0.9,0.8c-0.4,0.1-0.9,0-1.4-0.1c-1.3-0.1-2.5-0.2-3.8-0.2
	c-1.1,0-2.1,0.2-3.2,0.3c-1.1,0.1-2.2,0.3-3.3,0.4c-0.2,0-0.3,0.3-0.6,0.5c2.2,1.4,1,3.3,1,5c0,0.8,0,1.6-0.1,2.3
	c-0.1,1.3-0.3,2.6-0.4,3.9c-0.1,1.7-0.3,3.4-0.3,5.1c-0.1,2.7,0,5.4,0,8c0,0.4-0.1,0.8-0.3,1.1c-0.1,0.2-0.5,0.3-0.8,0.3
	c-0.2,0-0.4-0.4-0.5-0.6c-0.2-1.8-0.5-3.7-0.6-5.5c-0.1-4,0-7.9,0-11.9c0-1.4-0.1-2.7-0.8-4c-0.4-0.7-0.4-1.6-0.7-2.6
	C296,37.3,293.4,38.2,290.8,35.7z"/>
<path class="st0" d="M65.4,10.5c0,0-0.1,0-0.3-0.1c-3,3.2-5.9,6.5-8.9,9.8c-0.5,0.6-1.2,1.1-1.4,1.8c-0.3,0.8-0.5,1.7-0.7,2.5
	c0.1,0.1,0.2,0.3,0,0.5c0,0.1-0.1,0.1-0.1,0.2c0,0,0,0,0,0c-0.5,1.4-1.6,2.9-2.9,3.7c-0.2,0.3-0.5,0.5-0.8,0.5
	c-4.1,0.3-8.2,0.6-12.3,0.7c-2.7,0.1-5.4,0-7-2.8c-0.7-1.2-1.7-2.1-2.5-3.2c-0.4-0.6-0.5-1.3-0.9-1.9c-1.9-2.9-4-5.7-5.9-8.5
	c-0.6-0.8-0.9-2.2-1.7-2.5c-1.3-0.6-2.9-0.6-4.7-0.9c0.3,0.8,0.4,1.4,0.7,1.9c3.8,5.7,7.6,11.3,11.5,16.9c0.3,0.4,0.5,0.8,0.7,1.2
	c0,0,0,0,0,0c0.7,0.6,1.3,1.4,2.1,1.9c0.7,0.4,1.5,0.5,2.3,0.7c2.8,0.2,5.7,0.5,8.5,0.8c0.3,0,0.6,0,0.9,0c0,0,0,0,0,0
	c3.7,0.3,8-0.4,11.1-2.6c0.2-0.2,0.3-0.4,0.2-0.6c1.5-1.7,2.8-3.6,3.8-5.7c0.5-1.1,1.1-2.1,1.8-3c2-2.6,4.2-5.1,6.3-7.7
	C66.6,12.4,66.6,12.4,65.4,10.5z"/>
<path class="st0" d="M22.6,31.7c-0.1-0.2-0.2-0.4-0.4-0.6c-1.7-2.7-3.3-5.5-5-8.2c-0.6-0.9-1-1.8-1.7-2.5c-0.2-0.3-0.4-0.6-0.6-0.9
	c-0.3-0.6-0.6-1.2-1-1.8c-0.1-0.2-0.3-0.2-0.5-0.2c0-0.1-0.1-0.1-0.1-0.2c-0.2-0.4-0.3-0.8-0.6-1.2c-0.9-1.5-2-2.9-3.1-4.4
	c-0.9-1.3-2.9-1.7-4.2-1c-0.2,0.1-0.3,0.4-0.4,0.7c-0.2,1.3-0.4,2.5-0.4,3.8c0,0.4,0.3,0.9,0.6,1.2c0.9,0.9,2,1.6,2.7,2.6
	c1.1,1.4,2.1,3,3.1,4.5c0.7,1,1.8,1.9,2.4,3c1.6,3,3,6.2,5.3,8.8c0.4,0.4,0.5,1.3,0.4,1.9C17,42.5,15,48.2,11.7,53.2
	c-1.8,2.7-3.5,5.5-5.2,8.2c0.4,0.8,1,0.8,1.6,0.3c0.7-0.5,1.4-1.1,2.1-1.8c4-3.9,6.2-9,8.7-13.9c1.4-2.5,2.2-5.4,3.7-7.8
	C24.1,36,23.9,33.9,22.6,31.7z"/>
<path class="st0" d="M25.4,98.2C19.8,89.5,14,81,8.4,72.1c-0.4,0.2-1,0.6-1.7,0.8c-1.1,0.3-1.2,1-1.1,1.9c0.1,0.8,0.1,1.6,0.2,2.5
	c0,0.3,0,0.6,0.2,0.8c1.9,2.6,3.8,5.1,5.7,7.6c2.8,3.8,5.6,7.5,8.4,11.3c0.2,0.3,0.3,0.9,0.1,1.3c-1.3,3.6-2.7,7.3-4,10.9
	c-0.8,2.2-1.4,4.6-2.5,6.7c-1.8,3.5-3.9,6.8-5.9,10.2c-0.2,0.3-0.2,0.8,0,1c0.4,0.5,0.9,1,1.5,1.5c1-1.9,2-3.6,3-5.4
	c2.5-4.6,5.1-9.2,7.5-13.9c0.2,0.1,0.5,0,0.6-0.3c0.2-0.5,0.4-1,0.5-1.5c0.5-0.6,0.9-1.3,0.8-2c0.9-2.3,2-4.5,3.3-6.6
	c0.1-0.1,0.1-0.3,0.1-0.4C25.1,98.4,25.2,98.3,25.4,98.2z"/>
<path class="st0" d="M220.3,91.7c-0.7,0.2-1.1,0.3-1.4,0.4c-0.1-0.4-0.4-0.9-0.2-1.2c0.6-1.5,1.3-2.9,1.9-4.3
	c0.9-2.2,1.6-4.5,2.6-6.7c0.5-1.2,1.3-2.4,2-3.5c0.2-0.3,0.9-0.2,1.3-0.3c0,0.5,0.1,1,0,1.5c-0.1,0.5-0.5,1-0.9,1.8
	c0.6-0.2,1-0.3,1.3-0.5c0.4-0.3,0.7-0.7,1.1-1.1c2.8-2.6,6.3-2.7,8.8,0.7c1.2,1.6,1.5,3.4,2.1,5.1c1.1,3.1-0.2,5.9-0.8,8.8
	c-0.2,0.7-0.6,1.4-1.1,1.9c-2.4,2.9-4.8,5.8-8.1,7.6c-1.3,0.7-2.7,1.5-4.3,1.4c-2.4-0.2-4-1.6-4.3-3.8c-0.3-1.9-0.3-3.9-0.4-5.8
	C219.8,93.2,220.1,92.5,220.3,91.7z M235.9,87.8c-0.3-1.4-0.5-2.9-1-4.3c-0.5-1.4-1.3-2.9-3-3.2c-2.6-0.5-6.3,1.4-7.2,4.2
	c-0.6,2-1,4-1.2,6.1c-0.2,2.2-0.1,4.4,0,6.6c0.1,2.3,2.5,3.7,4.6,2.7c2.6-1.2,4.5-3.1,5.7-5.8C234.7,92,236,90.2,235.9,87.8z"/>
<path class="st0" d="M310.8,97.7c0.2-4.2,0.3-8.5,0.6-12.7c0.1-1.3,0.8-2.5,0.9-3.8c0.1-0.8-0.3-1.7-0.7-2.5c-0.5-1.1-0.4-2,0.6-2.6
	c0.7-0.5,1.5-1,2.3-1c1.5-0.2,3-0.2,4.4,0c2.1,0.4,3.7,1.6,4.5,3.6c0.7,1.8,1.4,3.5,1.9,5.4c0.3,0.9,0.2,2,0.1,3
	c-0.1,1.5-0.4,3.1-0.3,4.6c0.1,1.7-0.7,3.1-1.2,4.5c-0.3,0.8-0.7,1.5-1.2,2.2c-1.1,1.4-2.6,2.2-4.3,2.4c-1.1,0.1-2.2,0-3.4,0.1
	c-0.3,0-0.8,0.4-0.9,0.6c-0.1,0.9-0.6,1.4-1.5,1.4c-0.8,0-1.8-0.9-1.8-1.8C310.8,99.8,310.8,98.8,310.8,97.7z M313.4,98.6
	c1.7-0.7,2.9-1.2,4.1-1.8c2.5-1.1,3.8-3,3.8-5.7c0-0.8-0.3-1.7-0.2-2.5c0.7-3-0.2-5.8-1.5-8.4c-0.7-1.3-2.3-1.6-3.2-0.4
	c-0.6,0.8-1.2,1.8-1.1,2.7c0.1,1.6-1,3.2-0.2,4.8c0,0.1,0,0.2-0.1,0.3c-0.1,0.8-0.3,1.7-0.4,2.5c-0.2,1.6-0.3,3.3-0.5,4.9
	c0,0.1-0.1,0.2-0.1,0.3C313.8,96.5,313.6,97.4,313.4,98.6z"/>
<path class="st0" d="M218.8,49.2c-0.5,0.2-0.9,0.4-1.4,0.5c0-0.6-0.3-1.4-0.1-1.9c0.5-1.2,1.3-2.4,1.8-3.6c0.9-2.2,1.6-4.5,2.5-6.6
	c0.5-1.2,1.3-2.3,2-3.4c0.2-0.2,0.9-0.3,1.1-0.2c0.3,0.3,0.4,0.8,0.3,1.2c-0.1,0.6-0.5,1.1-0.6,1.8c0.3-0.2,0.7-0.2,0.9-0.5
	c1.2-1.7,3.1-2.4,4.9-2.9c1.4-0.4,2.7,0.4,3.8,1.3c2,1.7,2.9,4,3.5,6.5c0.6,2.1,0,4.1-0.2,6.1c-0.1,1.5-0.9,3.1-1.8,4.3
	c-2.2,3-4.7,5.9-8,7.8c-1.7,1-3.6,2-5.8,1.2c-2.3-0.8-3-2.6-3.3-4.7c-0.3-2.2-0.3-4.3,0.4-6.5C218.9,49.6,218.8,49.4,218.8,49.2z
	 M221.8,51c0.1,0,0.2,0,0.3,0.1c0,1.3,0,2.6,0,3.8c0.1,2.2,2.5,3.8,4.3,2.8c2.6-1.3,4.6-3.1,6-5.8c1.9-3.8,2.8-7.6,0.7-11.6
	c-0.8-1.6-3.1-3.3-4.9-2.2c-0.5,0.3-1.2,0.4-1.8,0.7c-1.6,0.8-3,2-3.3,3.8C222.5,45.3,222.2,48.1,221.8,51z"/>
<path class="st0" d="M191.7,45.8c-0.4,0-0.8,0-1.2,0c-2.5,0-3.5,1.5-3.2,4c0.3,2,0,4.2,0.2,6.2c0.1,1.4,0.6,2.8,0.9,4.2
	c0.3,1,0.4,2-0.4,2.7c-0.3,0.3-1.4,0.5-1.5,0.3c-0.7-0.8-1.4-1.7-1.7-2.7c-0.3-1,0-2.1-0.1-3.2c-0.1-2.7-0.3-5.5-0.6-8.2
	c-0.2-1.7-0.8-3.4-1-5.1c-0.2-1.2,0-2.4-0.1-3.6c0-1.2-0.1-2.4,0-3.6c0.3-1.7,0.7-3.4,1.2-5.1c0.1-0.4,0.8-1,1.2-1
	c1.8-0.2,3-1.2,4.3-2.4c1.2-1.1,2.6-0.8,4-0.6c0.6,0.1,1.3,0.3,1.9,0.7c1.1,0.6,2.2,1.2,3.1,2.1c0.6,0.6-0.1,2-1.1,2
	c-1.2,0-2.3-0.2-3.5-0.3c-0.2,0-0.5-0.1-0.7,0c-2,0.9-3.9,2.1-4.8,4.3c0,0.1-0.1,0.1-0.1,0.2c-0.2,1.9-0.4,3.8-0.6,5.6
	c-0.1,1.1,0.7,1.4,1.6,1.2c1.7-0.4,3.2,0.4,4.8,0.6c0.2,0,0.7,0.6,0.6,0.7c-0.1,0.3-0.5,0.8-0.8,0.8
	C193.5,45.9,192.6,45.8,191.7,45.8C191.7,45.8,191.7,45.8,191.7,45.8z"/>
<path class="st0" d="M202.6,55.8c2-0.4,4,0.6,5.9-0.5c0.4-0.3,1.2-0.1,1.8-0.1c1.1,0.1,2-0.4,2.8-1.1c1.5-1.3,3.1-1.1,3.9,0.7
	c0.4,0.9,1,2.1,0.2,3.1c-0.4,0.5-0.9,1-1.5,1.1c-1.6,0.3-3.2,0.3-4.8,0.6c-1.1,0.2-2,0.8-3,1.3c-0.3,0.1-0.6,0.3-0.9,0.3
	c-2.1,0-4.2,0.2-6.2-0.6c-0.2-0.1-0.5-0.4-0.5-0.6c-0.1-0.8-0.2-1.6,0-2.3c0.9-2.2,0.3-4.6,0.6-6.9c0.2-1.1,0-2.2,0-3.4
	c0.1-2.1,0.3-4.1,0.3-6.2c0-2.7-0.4-5.4-0.2-8.1c0.1-1.5-0.3-3.2,1-4.5c1-0.9,2.7-1.2,3.7-0.5c1.7,1.2,2.1,2.5,1.3,4.1
	c-0.8,1.5-1.4,3.1-1.5,4.9c-0.1,1.5-0.6,3-0.9,4.5c-0.1,0.7-0.2,1.3-0.3,2c-0.3,1.6-0.6,3.3-0.9,4.9c0,0,0,0.1,0,0.1
	C203.2,51.1,202.9,53.3,202.6,55.8z"/>
<path class="st0" d="M288.2,96.3c-3.3,1.5-6.5,1.2-8.9-1.1c-0.9-0.9-1.5-2-1.5-3.4c0.1-2.3,0.2-4.6,0-6.8c-0.1-1.5,0.7-2.4,1.3-3.4
	c1-1.6,2.4-3.1,3.5-4.6c0.8-1.1,2.1-1.2,3.3-1.5c1.3-0.3,2.6-0.5,3.8-0.6c1.1-0.1,2.6,1.3,2.8,2.4c0.2,1.3-0.7,2.2-2.3,2.3
	c-0.4,0-0.7,0.1-1.1,0c-2.9-0.9-4.5,1.2-6.2,2.9c-1.8,1.8-2.4,4.1-2.5,6.5c0,0.3,0,0.7-0.2,0.9c-1,1.3,0,2.5,0.4,3.5
	c0.2,0.5,1.3,0.7,2,1c2,0.9,3,0.8,4.4-0.8c0.3-0.3,0.4-0.7,0.4-1.1c0.1-1.6,0.2-3.3,0.3-4.9c0.1-1,1-1.7,1.9-1.7c1,0,1.8,0.9,2,1.9
	c0.9,4,0.6,8.1,0.7,12.2c0,1.4,0.4,2.8,0.5,4.2c0.1,0.6,0.1,1.3-0.8,1.4c-0.9,0.1-1.5-0.1-1.8-1.1c-0.7-2.2-1.5-4.3-2.2-6.5
	C288.3,97.5,288.3,97,288.2,96.3z"/>
<path class="st0" d="M260.7,43.6c1.3-0.1,2.5-0.4,3.8-0.3c2.2,0.2,4.3,0.5,6.4,0.9c0.3,0.1,0.5,0.6,0.8,0.9c-0.3,0.2-0.6,0.6-1,0.7
	c-1.9,0.2-3.8,0.4-5.6,0.6c-1,0.1-2.1,0.4-3.1,0.6c-1.3,0.2-1.7,1-1.4,2.2c0.5,2.1,1,4.2,2.7,5.7c1.3,1.2,2.8,1.7,4.5,2
	c1.8,0.3,3.7,0.7,5.5,1.1c0.3,0.1,0.6,0.5,0.9,0.8c-0.4,0.3-0.7,0.7-1.1,0.8c-2,0.1-4.1,0.2-6.1-0.1c-1.6-0.2-3.1-0.8-4.6-1.3
	c-0.1,0-0.3-0.1-0.3-0.2c-0.6-1.4-2.1-2.4-1.9-4.2c0.1-0.7-0.2-1.5-0.6-2.1c-1.3-2.7-1.1-5.5-1-8.4c0-1.7,0.4-3.4,0.5-5.1
	c0-0.4-0.3-0.8-0.4-1.3c-0.2-1.1-0.5-2.3-0.3-3.4c0.3-1.3,1.7-1.7,2.9-1.9c0.4-0.1,1,0.3,1.4,0.5c1.5,0.9,3.2,0.8,4.8,0.5
	c2.2-0.4,4.3,0.1,6.5,0.5c0.9,0.2,1.8,0.5,2.6,0.7c0.8,0.3,1.2,1,0.8,1.7c-0.2,0.3-1.2,0.6-1.5,0.3c-1.5-1.1-2.7,0-4,0.3
	c-1.9,0.3-3.8,0.9-5.8,1.2c-1.2,0.2-2.4,0.1-3.5,0.4c-0.5,0.1-1,1-1.1,1.6C260.9,40.6,260.8,42.1,260.7,43.6z"/>
<path class="st0" d="M197.4,80.3c-0.3,1.5-0.5,3-0.9,4.5c-0.4,1.4-3,3.2-4.4,3.2c-1.4,0-2.9,0.4-4.1-0.6c-0.3-0.2-0.5-0.6-0.5-0.9
	c0-0.2,0.4-0.6,0.7-0.6c0.7,0,1.4,0.1,2.1,0.3c1.2,0.4,2.1,0.1,2.8-1c1-1.6,1.5-3.2,1.5-5.1c0-1.9-0.9-3.2-1.7-4.7
	c-1-1.7-2.6-1.7-4.2-1.7c-0.2,0-0.6,0.3-0.7,0.6c-0.3,0.7-0.4,1.4-0.6,2.1c-0.3,1.7-0.5,3.4-0.8,5.1c-0.4,2.5-0.9,4.9-1.4,7.4
	c-0.2,1.2-0.3,2.4-0.6,3.5c-0.2,1.1-0.5,2.1-0.9,3.2c-0.6,1.5-1.3,2.9-1.3,4.6c0,0.2,0,0.5-0.2,0.7c-0.5,0.5-0.5,0.9,0,1.5
	c0.3,0.4,0.2,1.1,0.1,1.6c0,0.2-0.9,0.4-1.1,0.3c-0.4-0.4-0.9-0.9-1-1.5c-0.2-2.2,0.2-4.3,1-6.4c0-0.1,0-0.2,0.1-0.4
	c0.2-2.8,0.5-5.6,0.7-8.4c0.2-1.8,0.3-3.6,0.5-5.4c0.2-1.8,0.7-3.6,0.9-5.4c0.1-0.9-0.4-1.8-0.5-2.7c-0.1-1.1,0.7-1.9,1.7-2
	c2.1-0.4,4.2-0.4,6.3-0.6c2.6-0.2,5.1,2.4,5.7,4.4C196.9,77.4,197.1,78.8,197.4,80.3z"/>
<path class="st0" d="M142.8,24.6c-3.3-0.4-6.5-0.8-9.8-1.2c-0.4-0.1-0.9-0.1-1.3,0c-1.7,0.3-2.6-0.6-3.3-2c-1.3-2.6-2.7-5.1-3.9-7.7
	c-0.3-0.6-0.4-1.2,0.4-1.6c0.1-0.1,0.3-0.2,0.4-0.3c1.8-1.5,2.1-1.5,3.3,0.5c0.7,1.2,1.5,2.4,2.1,3.6c1.5,2.7,3.9,3.8,6.8,3.9
	c2.5,0.1,5,0,7.5-0.2c2.2-0.1,3.7-1.5,5-3.1c1.3-1.5,2.8-2.9,4.3-4.3c0.2-0.2,0.5-0.5,0.8-0.5c0.6,0,1.2,0.2,1.9,0.3
	c-0.2,0.5-0.3,1-0.6,1.3c-2.6,2.9-5.2,5.7-7.8,8.6C147.1,23.6,145.2,24.4,142.8,24.6z"/>
<path class="st0" d="M55.9,12.3c0-0.1-0.7-0.2-1.1-0.3c-0.2-0.1-0.3-0.3-0.5-0.6c-2,1.9-3.9,3.7-5.9,5.6c-1.2,1-2.3,2-3.5,3
	c-2.1,0.3-4.2,0.6-6.4,0.8c-0.1-0.1-0.1-0.2-0.3-0.2l-0.8-0.2c-0.3-0.2-0.6-0.5-0.8-0.8c-0.9-0.8-1.8-1.6-2.7-2.3
	C33.6,17.2,33.3,17,33,17c-0.3-0.1-0.4-0.4-0.3-0.6c-0.2-0.1-0.4-0.1-0.5-0.2c0,0,0,0,0,0c0,0-0.1,0-0.1,0.1
	c-2.4-1.9-4.7-3.8-7.2-5.7c-0.6,0.7-0.8,1.2-0.2,2.1C26.9,16,29,19.3,31,22.8c0.4,0.7,0.8,0.9,1.4,1.1c3.3,0.8,6.7,1.7,10,2.4
	c1.1,0.2,2.3,0.4,3.3-0.6c1.7-1.6,3.4-3.2,5-4.9c1.7-1.9,3.3-3.9,5-5.8C56.5,14.1,55.7,13.2,55.9,12.3z"/>
<path class="st0" d="M168.9,16.5c0.8,0.4,0.9,1,0.7,1.7c-0.7,3.1-2.5,5.7-4.4,8.2c-1.2,1.7-2.5,3.4-3.7,5.1
	c-1.2,1.6-1.3,3.5-0.7,5.3c1.9,5.8,3.9,11.5,6,17.3c0.5,1.6,1.1,3.1,1.7,4.7c0.1,0.3,0.2,0.6,0.1,0.8c-0.3,0.6-0.6,1.2-0.9,1.7
	c-0.5-0.3-1.1-0.6-1.4-1c-0.6-1.1-1.2-2.2-1.3-3.4c-0.2-2.1-1.5-3.7-2.3-5.6c-2.1-5-4.4-9.9-6.5-14.8c-0.2-0.4-0.1-1.2,0.2-1.6
	c1.6-2.4,3.2-4.8,4.9-7.2c2.3-3.3,4.6-6.7,6.9-10C168.3,17.2,168.6,16.9,168.9,16.5z"/>
<path class="st0" d="M298.4,98.5c-0.2-1.3-0.5-2.5-0.6-3.8c0-1.5,0.3-3,0.3-4.5c0.1-3.2,0-6.3,0.1-9.5c0.1-1.8,0.1-3.8,1.7-5.2
	c1-0.9,2.6-0.7,3.3,0.4c0.1,0.2,0.2,0.5,0.2,0.8c-0.1,0.8-0.2,1.6-0.3,2.4c-0.2,1.5-0.4,3-0.5,4.4c-0.1,1.3-0.2,2.6-0.2,3.9
	c-0.1,3.1-0.4,6.3-0.4,9.4c0,1.6-0.3,3.3,0.5,4.9c0.3,0.5,0,1.8-0.3,2c-1.1,0.5-2-0.1-2.5-1.1c-0.6-1.3-1.1-2.7-1.6-4.1
	C298.2,98.6,298.3,98.5,298.4,98.5z"/>
<path class="st0" d="M169.6,51.2c-0.8-2.1-1.5-4.2-2.4-6.2c-0.8-1.9-1.6-3.9-2.8-5.6c-1.3-1.9-1.3-3.8,0-5.5
	c1.8-2.3,3.7-4.5,5.6-6.8c0.1-0.1,0.2-0.1,0.4-0.2c0.6,1.1,0.2,2.2-0.1,3.2c-0.5,1.4-1.1,2.9-2,4c-0.9,1.1-0.9,2-0.4,3.1
	c0.9,2.5,1.9,4.9,2.5,7.5c0.4,1.8,0,3.7-0.1,5.6c0,0.2-0.2,0.5-0.4,0.7C169.9,51.1,169.7,51.1,169.6,51.2z"/>
<path class="st0" d="M247.9,15.6c0.7-1.6,1.5-3.3,2.3-5.1c0.1,0,0.2,0.1,0.3,0.1c0.1,0.3,0.1,0.6,0.2,0.9c0.9-0.6,1.8-1.5,3-0.7
	c1.3,0.9,1.6,2.2,1.6,3.7c-0.1,2.3-1.6,3.8-3.4,5.1c-0.8,0.6-1.8,1.1-2.8,0.5c-0.9-0.6-0.9-1.7-0.9-2.7c0-0.4,0-0.9-0.2-1.1
	c-0.2-0.2-0.7,0.1-1.1,0.2c-0.1,0-0.2,0.1-0.3,0.2c0.5,1.2,0.9,2.5,1.4,3.7c-0.1,0.1-0.2,0.2-0.2,0.2c-0.3-0.2-0.6-0.4-0.8-0.7
	c-0.4-0.6-0.6-1.3-1-1.9c-0.4-0.6-0.8-1.6-1.8-1.2c-0.9,0.3-1.9,0.8-1.8,2.1c0,0.4,0,1-0.2,1.2c-0.4,0.4-1.1,0.9-1.5,0.8
	c-0.8-0.2-0.6-1.1-0.2-1.6c0.6-0.8,0.7-1.5,0.4-2.4c-0.1-0.5,0.2-1.2,0.3-1.8c0.2-0.7,0.6-1.4,0.8-2.1c0.2-1.1,0.3-2.1,0.5-3.2
	c0-0.2,0.4-0.6,0.6-0.6c0.2,0,0.7,0.1,0.8,0.3c0.6,1.2,1.1,2.4,1.7,3.7c0.1,0.2,0.1,0.5,0.2,0.7C245.8,15.1,246.3,15.9,247.9,15.6z
	 M249.4,16.8C249.4,16.9,249.5,16.9,249.4,16.8c0.1,0.2,0,0.3,0.1,0.5c0.2,0.6,0.3,1.5,0.7,1.7c0.5,0.2,1.3-0.1,1.8-0.5
	c1.3-0.9,1.8-2.3,2-3.8c0.2-1.2-0.8-2.6-1.7-2.7c-1.1-0.1-2.3,0.8-2.5,2.1C249.6,15,249.5,15.9,249.4,16.8z M243.4,12
	c-0.9,2.8-0.8,3.1,1,3.4C244,14.3,243.7,13.3,243.4,12z"/>
<path class="st0" d="M170.4,107.4c-0.2-1.4-0.4-2.9-0.8-4.3c-1-3.1-1.5-6.1-0.9-9.3c0.3-1.6,0.3-3.2,0.4-4.9c0,0,0,0,0,0
	c0-0.1,0-0.2,0-0.3c0-0.2,0-0.4,0-0.7c-0.1,0.1-0.1,0.3-0.2,0.4c-0.3-0.1-0.6-0.1-0.8,0.3c-0.7,1.8-1.5,3.5-2.6,5.2
	c-0.6,1-2,2.3-2.3,3.4c-0.4,1.4,0.5,2.6,1.4,3.7c0.5,1,1,2.1,1.5,3.1c0.8,1.4,1.6,2.8,2.5,4.2c0.2,0.3,0.9,0.4,1.4,0.3
	C170.1,108.4,170.4,107.7,170.4,107.4z"/>
<path class="st0" d="M201,125c-0.2-0.1-0.7-0.3-0.9-0.4c0.2-0.9,0.5-1.6,0.6-2.4c0.1-0.8,0.5-1.7-0.4-2.1c0.5-1.6,0.9-3.2,1.3-4.5
	c-0.7-0.2-1.3-0.4-2.1-0.5c-0.5-0.1-1,0.1-1.5,0.1c-0.7,0.1-1.3,0.4-2,0.4c-1.8,0.1-1.9,0.2-1.7,2c1.3,0.2,2.5,0.4,3.8,0.5
	c0,0.1,0,0.3,0,0.4c-1,0.1-1.9,0.3-2.9,0.4c-1.1,0.1-1.3,0.5-1,1.5c0.5,1.6,1.7,2.1,3.2,2.3c0.5,0,1,0.2,1.6,0.3
	c-2.1,1.2-4.8,0.2-5.2-1.9c-0.3-1.3-0.3-2.6-0.4-3.9c-0.1-0.7-0.1-1.5-0.2-2.2c-0.1-0.8,0.1-1.5,0.9-1.5c1.7,0.1,3.3,0.2,4.9,0.5
	c0.9,0.2,1.7,0.2,2.6,0c1.1-0.2,2.2-0.2,3.3-0.2c0.7,0,1.4,0.2,1.7,1.1c0.2,0.9-0.2,1.5-0.8,2c-1.1,0.8-2.3,1.6-3.7,2.5
	c1,0.4,1.8,0.7,2.6,1.1c0.6,0.3,1,0.9,1.5,1.4c-0.5,0.5-1,1.1-1.6,1.5c-0.6,0.4-1.3,0.5-2,0.7C202.2,124.5,201.7,124.7,201,125z
	 M205.8,116c-0.8-0.4-1.2-0.7-1.7-0.7c-0.4,0-1.2,0.1-1.3,0.4c-0.3,0.8-0.4,1.7-0.5,2.5c0.1,0.1,0.2,0.1,0.4,0.2
	C203.6,117.7,204.6,117,205.8,116z M202.1,120.7c-0.1,1.1-0.2,1.9-0.4,3c1.2-0.6,2.2-1,3.1-1.5c0-0.1,0-0.3-0.1-0.4
	C204,121.4,203.1,121.1,202.1,120.7z"/>
<path class="st0" d="M294.1,119.8c-0.3,0.3-0.7,0.5-1.1,0.9c0.5,1.3,0.9,2.6,1.4,3.9c-0.2,0.1-0.3,0.2-0.5,0.2
	c-0.3-0.6-0.7-1.1-1-1.7c-0.2-0.3-0.2-0.8-0.5-1.1c-0.5-0.5-1.1-1.3-1.6-1.2c-1.1,0.1-1.9,0.9-2,2.2c0,0.5,0,1.1-0.3,1.5
	c-0.3,0.3-0.9,0.3-1.4,0.4c-0.1-0.5-0.4-1.1-0.2-1.3c0.6-0.9,0.8-1.7,0.6-2.8c-0.1-0.6,0.3-1.3,0.5-1.9c0.1-0.2,0.2-0.4,0.2-0.7
	c0.2-1.5,0.4-2.9,0.7-4.4c0-0.2,0.4-0.6,0.6-0.6c0.4,0.1,1,0.2,1.1,0.6c0.6,1.3,1.1,2.6,1.5,4c0.3,1,0.3,2.3,2.1,1.8
	C294.2,119.6,294.1,119.7,294.1,119.8z M289.9,115.8c-1,2.6-0.8,3,0.9,3.4C290.5,118.2,290.2,117.1,289.9,115.8z"/>
<path class="st0" d="M145.6,11.4c-0.2,3.4-2.2,5.1-4.8,4.7c-2.8-0.4-5.3-1.7-7.8-3.3C137.2,12.3,141.3,11.8,145.6,11.4z"/>
<path class="st0" d="M251,125.3c-2.5-1.6-3.6-4.1-5.6-5.8c-0.1,0-0.2,0.1-0.4,0.1c0,1.4,0,2.9,0,4.3c0,0.2-0.1,0.4-0.2,0.5
	c-0.2,0.1-0.6,0.1-0.6-0.1c-0.2-0.4-0.4-0.8-0.4-1.2c0.2-2.7,0.6-5.4,0.8-8.1c0-0.3,0-0.6,0.1-0.9c0.1-0.3,0.1-0.7,0.3-0.8
	c1-0.9,3.6-0.3,4.1,1c0.5,1.5,0.6,3-0.7,4.2c-0.8,0.7-0.2,1.3,0.1,1.9c0.8,1.4,1.7,2.8,2.5,4.2C250.9,124.7,250.9,124.9,251,125.3z
	 M245.5,117.9c1.2-0.1,1.8-0.4,1.8-1.5c0-0.4,0.1-0.8,0-1.2c-0.1-0.3-0.3-0.6-0.5-0.9c-0.3,0.2-0.8,0.4-0.9,0.7
	C245.7,115.8,245.7,116.8,245.5,117.9z"/>
<path class="st0" d="M187.9,117.8c0.1-0.6,0.3-1.3,0.4-1.9c0.1-0.4,0.1-0.8,0.2-1.1c0.4-0.8,0.8-1.7,1.9-1.5c1.1,0.2,1,1.1,1,2
	c0.1,2.9,0.2,5.7,0.3,8.6c0,0.4,0,0.8-0.3,1.1c-0.9-2.9-2-5.8-1.7-9c-0.1,0-0.3-0.1-0.4-0.1c-0.5,1.2-1,2.4-1.5,3.6
	c-1.5-0.9-0.9-2.5-1.9-3.8c-0.2,1.6-0.4,3.1-0.6,4.5c-0.1,0.4-0.2,1.1-0.4,1.2c-0.5,0.1-1.1,0-1.5-0.2c-0.2-0.1-0.1-0.8,0.1-1.3
	c0.3-1.2,0.6-2.4,1-3.5c0.3-0.7,0.6-1.5,1-2.2c0.1-0.2,0.5-0.5,0.7-0.5c0.2,0,0.5,0.4,0.6,0.6c0.3,1.1,0.6,2.2,0.8,3.3
	C187.7,117.8,187.8,117.8,187.9,117.8z"/>
<path class="st0" d="M279.8,119.8c-0.4,0.3-0.7,0.5-1.2,0.8c0.5,1.3,0.9,2.6,1.4,3.9c-0.1,0.1-0.3,0.1-0.4,0.2
	c-0.3-0.4-0.6-0.7-0.8-1.1c-0.3-0.5-0.4-1.1-0.7-1.5c-0.5-0.6-0.6-1.7-1.7-1.4c-1.2,0.3-1.9,1.1-2,2.4c0,0.5,0,1.1-0.3,1.3
	c-0.3,0.3-0.9,0.3-1.4,0.5c0-0.5-0.2-1-0.1-1.5c0.1-0.8,0.4-1.6,0.5-2.5c0.1-0.8-0.1-1.6,0.7-2.2c0.2-0.2,0.1-0.7,0.2-1.1
	c0.2-1.3,0.4-2.6,0.7-3.9c0.1-0.3,0.5-0.7,0.7-0.6c0.4,0,0.9,0.3,1,0.6c0.6,1.3,1,2.7,1.5,4c0.4,0.9,0.2,2.3,2.2,1.7
	C279.9,119.5,279.8,119.7,279.8,119.8z M275.6,116c-0.8,2.7-0.8,2.7,0.8,3.3C276.2,118.2,275.9,117.1,275.6,116z"/>
<path class="st0" d="M231.2,16c-0.3,0.3-0.7,0.6-1.1,0.9c0.5,1.2,0.9,2.5,1.4,3.7c-0.1,0.1-0.3,0.2-0.4,0.2
	c-0.3-0.4-0.7-0.8-0.9-1.3c-0.3-0.6-0.5-1.3-1-1.8c-0.3-0.4-1.1-1-1.3-0.8c-0.7,0.3-1.3,0.9-1.8,1.5c-0.3,0.3,0,1-0.2,1.4
	c-0.2,0.5-0.6,1-1.1,1.3c-0.1,0.1-0.9-0.2-0.9-0.3c0-0.5,0.1-1,0.2-1.5c0.1-0.7,0.2-1.4,0.3-2.1c0.1-0.6,0.1-1.2,0.3-1.8
	c0.1-0.5,0.5-1,0.6-1.6c0.3-1.3,0.4-2.6,0.7-3.9c0.1-0.3,0.4-0.6,0.6-0.6c0.3,0,0.8,0.3,0.9,0.6c0.6,1.4,1.2,2.8,1.7,4.2
	c0.3,1,0.4,2,2,1.7C231.2,15.7,231.2,15.8,231.2,16z M228,15.5c-0.3-1.2-0.6-2.3-1-3.5C226,14.5,226.1,14.9,228,15.5z"/>
<path class="st0" d="M189.5,16.8c0.5,1.2,0.9,2.4,1.4,3.6c-0.1,0.1-0.1,0.2-0.2,0.2c-0.3-0.2-0.6-0.4-0.8-0.7
	c-0.4-0.6-0.5-1.2-0.9-1.8c-0.4-0.7-0.8-1.7-1.8-1.4c-1,0.3-1.9,0.9-1.9,2.2c0,0.5,0,1.1-0.3,1.3c-0.3,0.3-1,0.4-1.5,0.6
	c-0.1-0.5-0.4-1.1-0.2-1.5c0.5-0.9,0.8-1.7,0.4-2.7c-0.1-0.4,0.2-1,0.3-1.6c0.3-1,0.6-1.9,0.8-2.9c0.2-0.9,0.3-1.8,0.5-2.7
	c0.2-0.7,1.1-0.7,1.5-0.1c0.6,1.1,1.1,2.4,1.6,3.6c0.1,0.3,0.1,0.5,0.2,0.8c0.2,1,0.5,1.9,1.9,1.8C190.3,16.2,189.9,16.5,189.5,16.8
	z M187.4,15.5c-0.3-1.2-0.6-2.2-1-3.5C185.5,14.7,185.6,15,187.4,15.5z"/>
<path class="st0" d="M218.1,120.9c0.4-1,0.7-1.7,0.9-2.5c0.4-1,0.6-1.9,0.3-3c-0.2-0.6,0.1-1.5,0.4-2.1c0.2-0.4,0.9-0.4,1.4-0.7
	c0.1,0.5,0.5,1.1,0.4,1.6c-0.6,2.2-1.3,4.4-1.9,6.6c-0.1,0.5-0.1,1-0.3,1.5c-0.1,0.4-0.5,0.7-0.7,1.1c-0.3-0.3-0.7-0.5-0.9-0.9
	c-0.4-1-0.6-2-0.9-3.1c-0.1-0.5-0.3-0.9-0.6-1.3c-0.2,1.3-0.3,2.6-0.6,3.9c-0.1,0.4-0.3,0.9-0.7,1.1c-0.1,0.1-0.8-0.1-0.9-0.3
	c-0.2-0.5-0.3-1.1-0.1-1.5c0.5-1,0.7-2,0.7-3.2c0-1.5,0.5-2.9,1.9-4.1C217.1,116.2,217.6,118.5,218.1,120.9z"/>
<path class="st0" d="M234.6,22.1c0.6-0.2,0.9-0.2,1.2-0.4c0.3-0.2,0.6-0.5,0.9-0.7c-0.3-0.2-0.5-0.4-0.8-0.6
	c-0.2-0.2-0.6-0.5-0.6-0.6c0.5-1.1-0.4-1.4-1-1.8c-1.8-1.3-2.3-2.9-1.6-5c0.6-1.9,1.5-2.6,3.5-2.7c1.1-0.1,1.6,0.3,2,1.6
	c-0.5,0.1-1,0.3-1.5,0.2c-2-0.3-3.3,0.9-2.8,2.8c0.2,0.9,1.1,1.7,1.9,2.2c0.8,0.5,1.5-0.1,2-0.8c0.2-0.2,0.4-0.4,0.7-0.4
	c0.3-0.1,0.6-0.1,0.9-0.2c0,0.3,0,0.6-0.1,0.9c-0.8,1.7-0.9,1.8-2.7,2.5c0.5,0.8,2.1,1.3,0.8,2.7C236.6,22.5,235.8,22.8,234.6,22.1z
	"/>
<path class="st0" d="M230.5,114.2c0,0.6,0,0.9,0,1.3c0.2-0.2,0.4-0.3,0.6-0.5c1.3-1,2.6-0.8,3.4,0.6c1,1.8,0.9,4.3-0.5,5.8
	c-0.8,0.8-1.6,1.6-2.5,2.3c-0.7,0.5-1.7,1-2.4,0.2c-0.5-0.6-0.7-1.5-0.9-2.3c-0.2-0.5-0.2-1.1-0.3-1.7c0-0.2-0.1-0.4,0-0.6
	c0.6-1.5,1.2-2.9,1.9-4.4C229.8,114.8,230.1,114.6,230.5,114.2z M229.4,120.7C229.4,120.7,229.4,120.7,229.4,120.7
	c0.1,0.2,0.1,0.5,0.1,0.7c0.1,1.6,0.9,2.1,2.3,1.2c1.8-1.1,2.6-3.9,1.8-5.8c-0.4-0.8-1-1.1-1.8-0.9c-0.9,0.3-1.6,0.8-1.8,1.8
	C229.6,118.8,229.5,119.8,229.4,120.7z"/>
<path class="st0" d="M283.8,117.6c0.4-1,0.8-2.1,1.3-3.1c0.4-0.7,1.1-1.4,1.7-2c0.1-0.1,0.4-0.1,0.5,0c0.1,0.1,0.2,0.4,0.1,0.5
	c-1.2,1.2-1.4,2.9-1.8,4.4c-0.4,1.6-1,3-1.5,4.6c-0.2,0.6-0.1,1.3-0.2,1.9c-0.1,0.3-0.3,0.6-0.5,0.9c-0.2-0.3-0.5-0.6-0.6-0.9
	c-0.1-0.5,0-1-0.1-1.4c-0.3-1.7-0.5-3.5-1-5.2c-0.2-0.7-1-1.3-1.5-2c-0.3-0.5-0.4-1.1-0.4-1.6c0-0.2,0.8-0.5,1.1-0.4
	c0.6,0.3,1.2,0.7,1.4,1.2c0.5,1,0.6,2.1,1,3.1C283.6,117.6,283.7,117.6,283.8,117.6z"/>
<path class="st0" d="M304.2,114.1c0,0.6,0.1,0.9,0.1,1.3c0.9-0.7,1.7-1.4,2.9-0.8c1.2,0.6,1.6,1.8,1.7,3c0.2,2.5-1.9,5.7-4.3,6.5
	c-2,0.7-2.6-0.8-2.7-2.5c0-0.5-0.2-1-0.3-1.5c0-0.2-0.1-0.4,0-0.6c0.6-1.5,1.3-3,1.9-4.5C303.6,114.8,303.8,114.6,304.2,114.1z
	 M303.2,120.6C303.3,120.6,303.3,120.6,303.2,120.6c0.1,0.2,0,0.5,0.1,0.7c0.1,0.5,0.2,1.5,0.5,1.5c0.6,0.1,1.4-0.1,1.8-0.4
	c1.5-1.1,2.1-2.7,1.9-4.5c-0.1-0.7-0.6-1.6-1.2-1.9c-0.5-0.3-1.5,0.1-2.1,0.5c-0.5,0.3-0.7,1-0.9,1.6
	C303.3,119,303.3,119.8,303.2,120.6z"/>
<path class="st0" d="M205.1,10.7c0,0.3,0,0.6-0.1,1c1.9-1.3,2.9-1.4,3.7-0.2c0.5,0.8,1,1.9,1,2.9c0.1,2.4-2.3,5.3-4.7,6.1
	c-1.1,0.3-2.1-0.3-2.3-1.6c-0.2-0.9-0.3-1.9-0.5-2.8c0,0,0-0.1,0-0.1c0.8-1.7,1.7-3.5,2.5-5.2C204.8,10.6,205,10.6,205.1,10.7z
	 M204,16.8C204,16.8,204,16.8,204,16.8c0.1,0.2,0,0.5,0.1,0.7c0.2,0.5,0.2,1.3,0.6,1.5c0.4,0.2,1.2,0,1.6-0.3
	c1.6-1.1,2.3-2.7,2.1-4.6c-0.1-0.9-0.4-1.8-1.5-2c-0.9-0.1-2.1,0.6-2.4,1.6c-0.1,0.2-0.1,0.4-0.2,0.6
	C204.2,15.1,204.1,15.9,204,16.8z"/>
<path class="st0" d="M218.2,15.7c0.2,1.8-0.5,2.8-1.5,3.5c-1,0.7-2.3,0.5-3.4-0.1c-2.7-1.6-3.1-2.8-2.2-6.5c0.4-1.8,3.4-3.1,5-2.1
	c0.4,0.3,0.6,0.9,0.9,1.4c-0.5,0.1-1,0.4-1.5,0.3c-1.8-0.4-2.6,0-3.1,1.6c-0.5,1.8,0.2,3.8,1.6,4.3c0.9,0.3,1.7,0,2.4-0.7
	C216.8,16.8,217.4,16.4,218.2,15.7z"/>
<path class="st0" d="M8.3,96.6c-0.4-0.3-0.9-0.5-1.4-0.6c-0.2-0.2-0.5-0.2-0.7,0c-0.6,0-1.1,0.2-1.7,0.5c-0.3,0.2-0.3,0.6-0.1,0.8
	c-0.1,0.1-0.2,0.2-0.2,0.4c-0.1,1.8-0.1,3.6-0.2,5.3c0,0.1,0,0.2,0.1,0.3c0,0.6,0,1.1-0.1,1.7c0,0.3,0.3,0.7,0.6,0.8
	c1,0.3,3-1,3.2-2c0.3-1.5,0.3-2.9,0.2-4.4c0.1-0.8,0.3-1.5,0.5-2.3C8.6,96.9,8.5,96.7,8.3,96.6z"/>
<path class="st0" d="M272.2,122.7c-1.6-1.3-3.1-2.6-5-4.1c-0.2,2-0.4,3.7-0.5,5.4c-0.1,0-0.3,0-0.4,0.1c-0.2-0.6-0.5-1.2-0.5-1.8
	c-0.2-2.1-0.2-4.3-0.3-6.4c0-0.5,0-1.1,0.3-1.4c0.2-0.2,1-0.2,1.3,0c0.3,0.3,0.5,0.9,0.6,1.4c0.1,0.2-0.1,0.5-0.1,0.8
	c1.7-1,3-2.5,4.9-2.8c-1.1,0.9-2.2,1.8-3.2,2.8c-1.2,1.1-1.1,1.1,0,2.2c1.2,1.2,2.2,2.4,3.3,3.7
	C272.3,122.5,272.3,122.6,272.2,122.7z"/>
<path class="st0" d="M242.9,113.9c-1.4,1.2-2.8,2.4-4.3,3.6c1.5,1.7,3,3.3,4.4,5c-0.1,0.1-0.1,0.2-0.2,0.3c-0.8-0.6-1.6-1.3-2.4-1.9
	c-0.8-0.7-1.5-1.3-2.3-2c-0.1,0-0.2,0.1-0.4,0.1c-0.2,1.7-0.3,3.4-0.5,5.1c-1-0.4-1-1.1-1-1.8c-0.1-2.2-0.2-4.3-0.3-6.5
	c0-0.4,0.1-1.1,0.4-1.3c0.3-0.2,1-0.2,1.3,0.1c0.3,0.3,0.4,0.9,0.5,1.4c0,0.2-0.1,0.4-0.1,0.7C239.8,115.7,241,114.1,242.9,113.9z"
	/>
<path class="st0" d="M225.7,122c-0.6,0-1.1,0-1.6,0c-1.3-0.1-2-0.9-2.1-2.2c-0.1-1.7-0.2-3.4,1.3-4.5c0.8-0.7,1.9-1,2.9-1.4
	c0.2-0.1,0.7,0.6,1.1,1c-0.3,0.3-0.7,0.7-1,0.7c-2.1,0.2-3.9,2.2-3.5,4.3c0.2,0.9,0.9,1.2,1.7,1.2c0.8,0,0.9-0.6,1-1.2
	c0.1-0.7,0.5-1.8,0.8-1.8c1.2,0,0.9,1.2,1,1.8c0.2,1.4,0.2,2.9,0.3,4.4c0,0.2-0.3,0.5-0.4,0.7c-0.2-0.2-0.4-0.3-0.5-0.6
	C226.2,123.7,225.9,122.8,225.7,122z"/>
<path class="st0" d="M35.8,12.3c0.3,0.6,0.5,1,0.7,1.3c-0.1,0.2-0.1,0.5,0.2,0.6c0,0,0.1,0,0.1,0.1c0,0.2,0,0.4,0.2,0.5
	c0.5,0.3,1.1,0.5,1.6,0.5c0.2,0,0.3,0,0.5,0c0.6,0.3,1.4,0.1,2.1,0.2c1,0.1,2.2-0.5,3.1-1c0.3-0.2,0.2-1.1,0.3-1.7
	c0-0.3,0.1-0.6,0.1-0.6C41.8,12.1,38.9,12.2,35.8,12.3z"/>
<path class="st0" d="M212.7,123.8c-1.3-0.2-2.6-0.3-3.9-0.6c-0.4-0.1-0.8-0.6-0.9-1c-0.4-1.6-1-3.2-0.6-4.9c0.1-0.6-0.1-1.3-0.2-2
	c-0.2-1,0.1-1.6,1-1.6c1.5,0.1,2.9,0.2,4.4,0.4c0.5,0.1,1,0.4,1.5,0.8c-1.2,0.3-2.5,0.7-3.7,0.8c-2,0.2-2,0.1-2.1,2.1
	c1.3,0.2,2.5,0.3,3.8,0.5c0,0.2,0,0.3,0,0.5c-0.9,0.1-1.9,0.3-2.8,0.4c-1,0.1-1.2,0.5-1,1.4c0.4,1.5,1.3,2.2,3.1,2.4
	c0.5,0.1,1,0.2,1.6,0.3C212.7,123.4,212.7,123.6,212.7,123.8z"/>
<path class="st0" d="M251.2,117.7c1.3,0.2,2.6,0.4,3.9,0.5c0,0.1,0,0.3,0,0.4c-1.3,0.2-2.6,0.4-3.9,0.6c-0.2,3.5,2.6,3.4,4.8,4
	c-0.1,0.2-0.1,0.4-0.2,0.5c-1.3-0.2-2.6-0.2-3.9-0.6c-0.5-0.1-1-0.9-1.1-1.5c-0.3-1.4-0.3-2.8-0.5-4.2c-0.1-0.8-0.1-1.6-0.2-2.4
	c-0.1-0.8,0.2-1.4,1.1-1.4c1.5,0,2.9,0.2,4.4,0.4c0.5,0.1,1,0.4,1.5,0.8c-1.3,0.3-2.7,0.6-4,0.8
	C251.3,115.8,251.2,115.9,251.2,117.7z"/>
<path class="st0" d="M297.5,118.5c2.1-0.6,2.6-1,2.5-2.7c-0.1-1.4-0.7-2.1-2.2-2.2c-0.8,3.6-1.5,7.2-2.4,11.2
	c-0.2-0.4-0.5-0.7-0.5-1c0.1-0.9,0.2-1.9,0.3-2.8c0.3-2,0.5-3.9,0.8-5.9c0.1-0.6-0.2-1.5,0.1-1.8c0.4-0.4,1.2-0.4,1.9-0.5
	c1.6-0.2,2.5,0.5,2.9,2.2c0.5,2-0.8,4-2.6,3.8C298,118.8,297.8,118.6,297.5,118.5z"/>
<path class="st0" d="M256.8,125.6c2-4.6,4.1-9.1,6.1-13.8c-0.1-0.1-0.2-0.2-0.3-0.3c0.4,0,0.8-0.1,1.2-0.1c0.4,0.1,0.9,0.3,1.1,0.6
	c0.1,0.1-0.2,0.7-0.4,1c-1.2,2-2.4,4-3.5,6.1c-0.9,1.7-1.7,3.5-2.6,5.2c-0.3,0.6-0.7,1-1.1,1.5C257.1,125.8,256.9,125.7,256.8,125.6
	z"/>
<path class="st0" d="M191.5,19.4c0.3-0.1,0.4-0.2,0.5-0.1c1,0.4,1.9,0.3,2.4-0.8c0.5-1,0.2-2.1-0.8-2.8c-0.6-0.4-1.2-0.8-1.8-1.2
	c-0.8-0.5-1.3-1.3-1-2.1c0.3-0.7,1.1-1.2,1.8-1.8c0.3-0.2,0.8-0.1,1.1-0.3c1.1-0.7,1.6,0,1.9,0.8c0.1,0.4,0,0.9-0.1,1.3
	c-0.3-0.2-0.7-0.3-1-0.5c-0.7-0.5-1.8-0.5-2.4,0.1c-0.5,0.5-0.5,1.1,0.1,1.5c0.6,0.4,1.3,0.9,1.8,1.3c1.2,1,1.5,2.6,0.8,3.8
	C194.2,20,192.7,20.3,191.5,19.4z"/>
<path class="st0" d="M197.1,19.3c0.1,0,0.2-0.1,0.3-0.1c1,0.4,1.9,0.3,2.4-0.7c0.5-0.9,0.1-2.2-0.9-2.8c-0.6-0.4-1.2-0.8-1.8-1.2
	c-0.7-0.5-1.2-1.1-1-2c0.2-1,0.9-1.6,1.8-1.8c0.3-0.1,0.7-0.1,1-0.2c1.2-0.4,1.9,0,2.1,1.2c0,0.3-0.2,0.6-0.2,1
	c-0.3-0.1-0.6-0.2-0.8-0.4c-0.7-0.7-1.4-0.7-2.2-0.2c-0.9,0.6-0.9,1.1-0.1,1.8c0.6,0.5,1.3,0.9,1.9,1.4c1,0.8,1.3,2.3,0.8,3.4
	c-0.5,1-1.5,1.5-2.7,1.3c-0.3,0-0.5-0.2-0.8-0.3C197,19.5,197,19.4,197.1,19.3z"/>
<path class="st0" d="M222,10.4c0,0.7,0,1.5,0,2.2c-0.2,1.9-0.4,3.8-0.5,5.7c0,0.5,0.2,1,0.2,1.5c0,0.3-0.1,0.5-0.1,0.8
	c-0.3-0.1-0.7-0.2-0.7-0.4c-0.3-1-0.7-2-0.7-3.1c-0.1-1.7,0.1-3.3,0.2-5C220.3,10.6,220.6,10.3,222,10.4z"/>
<path class="st0" d="M305.1,113.7c0.6-0.7,1.2-1.4,1.9-2.3c0.7,0.3,0.9,0.8,0.2,1.3c-0.6,0.5-1.2,0.8-1.8,1.3
	C305.3,113.9,305.2,113.8,305.1,113.7z"/>
<path class="st0" d="M255.1,111.9c-0.8,0.3-1.7,0.6-2.5,1c-0.1-0.1-0.1-0.3-0.2-0.4c0.5-1.2,1.5-1.1,2.5-1
	C255,111.6,255.1,111.7,255.1,111.9z"/>
<path class="st0" d="M170.2,125.2c-0.5-1.1-0.9-2.3-1.3-3.4c-2.1-5.8-4.1-11.6-6.2-17.4c-0.5-1.5-1.1-2.9-1.6-4.4
	c0-1.7,0.2-3.3,0.6-5c0-0.1,0-0.2,0-0.2c1.1-3.1,2.2-6.2,3.2-9.3c0.2-0.5,0.4-1.1,0.5-1.6c0.3-0.6,0.6-1.1,0.9-1.7
	c0.1-0.1,0.1-0.3,0-0.4c0.4-0.9,0.8-1.7,1.2-2.6c0.1-0.2,0-0.4-0.1-0.6c0-0.1,0-0.1,0.1-0.2l-0.3-0.1c0,0,0,0.1,0,0.1
	c-0.1,0-0.1,0-0.2,0c-0.2,0-0.3,0-0.4,0.3c0,0.1-0.1,0.2-0.1,0.3c-0.1,0-0.1,0.1-0.2,0.2c0,0,0,0.1-0.1,0.1c-0.1,0-0.2,0.1-0.2,0.2
	c-0.5,0.9-0.9,1.9-1.4,2.8c-1.1,2.1-2.2,4.2-3.3,6.3c-0.1,0-0.1,0.1-0.2,0.2c-0.1,0.1-0.1,0.2-0.2,0.3c-0.1,0-0.1,0.1-0.2,0.2
	c-0.8,1.4-1.5,2.8-2.2,4.2c-0.9,1.4-1.6,2.9-1.6,4.8c0.1,3.1,1.3,5.7,2.7,8.2c2.3,4.2,4.5,8.4,5.5,13.1c0.5,2.2,0.6,4.4,2.6,5.9
	c0.1,0.1,0.1,0.4,0.2,0.5c0.4,0.2,1,0.7,1.2,0.6C169.7,126.3,170.7,126.3,170.2,125.2z"/>
<path class="st0" d="M187.4,15.5c-1.8-0.5-1.9-0.8-1-3.5C186.8,13.2,187.1,14.3,187.4,15.5z"/>
<path class="st0" d="M87.4,112.3c-1.4,0-2.6,0-3.8,0c-0.1,0-0.3-0.5-0.3-0.8c0.1-0.4,0.5-0.7,0.6-1.1c0.2-0.6,0.2-1.3,0.3-2
	c0-0.3,0-0.6,0-0.8c0.4-1.8,0.9-3.5,1.1-5.3c0.1-0.7-0.4-1.5-0.4-2.2c-0.1-1.5-1-2.4-2-3.3c-0.8-0.7-1.7-1.4-2.4-2.1
	c-0.8-0.7-1.5-1-2.5-0.4c-2.1,1.1-4.4,1.3-6.7,0.8c-0.8-0.2-1.4,0-2,0.6c-0.8,0.8-1.6,0.7-2.2-0.2c-0.1-0.2-0.2-0.5-0.2-0.7
	c0.8-1.9,1.4-3.9,3.5-5.1c1.3-0.8,2.3-2.1,3.4-3.2c0.2-0.3,0.3-0.7,0.4-1.1c0.4-1,0.9-1.6,2.1-1.7c1.5-0.1,3.1-0.4,4.6-0.4
	c0.9,0,1.9,0.2,2.8,0.5c2.2,0.7,4.3,1.7,6.5,2c1.8,0.2,3.6,0.5,5.5,0.4c3.3-0.3,6.6-1.7,9.9-0.6c1.7,0.6,3.6,1.5,4.8,2.8
	c2.1,2.2,3.1,5,2.5,8.2c-0.1,0.7,0,1.5-0.3,2.3c-0.1-0.2-0.1-0.5-0.2-0.6c-0.1-0.2-0.4-0.4-0.6-0.5c-0.2,0-0.5,0.2-0.6,0.3
	c-0.7,1-1.5,2.1-2.1,3.2c-0.2,0.3,0.1,0.8,0.3,1.2c0.2,0.4,0.6,0.6,0.9,0.9c0.7,0.6,0.7,1.2,0.2,1.9c-0.9,1.1-1.8,2.3-2.6,3.5
	c-0.4,0.6-0.5,1.3-0.7,2c-0.3,1.3-0.9,1.6-2.2,1.3c-0.3-0.1-0.7-0.1-1.1-0.1c0.4-1.8,2.1-3.2,1.3-5.2c-0.6,1.2-1.2,2.3-1.8,3.5
	c-0.1,0.2,0.3,0.5,0.5,0.9c-0.8,0.7-1.8,1-3.3,0.7c0.5-1.3,1-2.5,1.5-3.7c0.4-1,0.8-1.9,1.1-3c0.1-0.4-0.2-1-0.5-1.4
	c-0.4-0.6-0.9-1.1-1.4-1.7c-2.9,0.9-6,1.3-9.2,0c0,1.8,0,3.5,0,5.1c0,0.3-0.1,0.7-0.2,0.9c-1.3,0.7-1.4,2-1.8,3.2
	c-0.1,0.4-0.5,1-0.8,1C88.6,112.5,87.7,113.2,87.4,112.3z M86.9,110.7c0.6-0.5,1-0.6,1.1-0.9c0.4-1,0.8-2,1.1-3
	c0.1-0.4-0.2-0.8-0.3-1.3c-0.1,0-0.3,0-0.4,0.1C88,107.2,86.5,108.4,86.9,110.7z"/>
<path class="st0" d="M91.2,58.4c-0.8,0-1.4,0-2.2,0c0.1-7.5,1.5-14.9,1-22.3c-0.1,0.1-0.3,0.2-0.4,0.3c-0.5-0.4-1.1-0.7-1.6-1.1
	c-0.5-0.5-1.5-0.5-2,0c-1.4,1.5-1.5,1.5-2.9,0c-0.5-0.5-0.9-1-1.9-0.5c-1.1,0.6-1.9-0.3-2.5-1.1c-0.2-0.3,0-1,0.2-1.5
	c0.2-0.5,0.6-0.9,0.9-1.5c-0.3-0.1-0.6-0.1-0.8-0.1c-0.4-2,1.2-3.4,3.3-3c1,0.2,2.2,0.3,3-1.3c-1.6-0.7-3.3-1.3-5.1-2
	c0.4-0.4,0.8-0.8,1.3-1.3c-0.8-0.8-0.2-1.5,0.4-2.4c0.7-1.1,1.6-0.6,2.4-0.2c-0.3-0.7-0.8-1.4-0.7-2c0.1-0.7,0.6-1.5,1.2-1.8
	c1.1-0.5,2.4-0.7,3.7-1c0.5-0.1,1,0,1.5,0.2c0.6,0.2,1.2,0.4,1.7,0.9c0.8,0.8,1.1,0.8,1.6-0.1c0.3-0.6,0.7-1,1.4-0.6
	c0,0,0.1,0,0.1,0c1.3-1,2.3,0.3,3.5,0.3c0.9,0,2.6,1.8,3,2.6c0.3,0.6,0.9,1.3,1.5,1.6c1.3,0.7,1.6,1.3,0.8,2.7
	c-0.1,0.3-0.2,0.7-0.1,0.9c0.8,1.4,0.2,3.1-1.4,3.7c0.2,1.5-0.8,2.1-2.1,2.5c-0.3,0.1-0.7,0.3-0.9,0.5c-0.9,1.3-2.2,1.5-3.7,1.4
	c-0.5,0-0.9,0.2-1.4,0.2c-1.1-0.1-1.5,0.4-1.3,1.5c0,0.2-0.3,0.6-0.6,0.7c-0.8,0.3-0.7,0.9-0.7,1.7c0.1,4.2,0.1,8.4,0,12.6
	c0,2.7-0.3,5.4-0.4,8.1C91.1,57.5,91.2,57.9,91.2,58.4z M85.9,32.5c0,0.1,0,0.3,0.1,0.4c1.3,0.2,2.6,0.5,4,0.8
	c-0.1-0.3-0.2-0.9-0.3-1.6C88.3,32.2,87.1,32.4,85.9,32.5z"/>
<path class="st0" d="M62.2,70.1c-0.1-0.1-0.2-0.3-0.4-0.4c-0.7-0.9-1.6-1.7-2-2.7c-0.6-1.7-0.5-3.6-1.1-5.3
	c-0.5-1.4-1.2-2.9-2.3-3.7c-2.5-1.9-5.5-3-8.5-3.8c-2.9-0.8-5.8-1.7-8.8-0.1c-3,1.5-6.1,2.8-8.3,5.6c-0.7,0.9-0.9,1.8-0.2,2.9
	c-0.8-0.1-1.5-0.3-2.2-0.4c-1.6-0.3-3.2-0.3-4.4,1.1c-0.9,1-1,2.8-0.1,3.3c1.9,0.9,3.8,1.8,5.9,2.7c-0.6,2.1-1.3,4.2-2,6.7
	c1.7-0.1,3.2,0.1,4.5-0.4c1.1-0.4,2.1-0.6,3.2-0.6c1,0,1.9-0.3,2-1.6c0.1-1.1,1.6-1.8,2.7-1.4c0.9,0.4,1.8,0.8,2.7,1.1
	c2.2,0.6,4.3,0,6.4-0.7c0.1,0,0.2,0,0.4,0.1c-0.2,0.3-0.3,0.6-0.5,1.1c3.6,0.7,6.9,0.1,10.2-1c-0.1-0.8-0.2-1.5-0.3-2.2
	c1.1,0.1,2.1,0.1,3.1,0.2C62.1,70.3,62.1,70.2,62.2,70.1z M26,64.1c-0.6,0-0.6-1,0-1C26.7,63.1,26.7,64.1,26,64.1z"/>
<path class="st0" d="M126.4,71.4c-1.3,1.3-2.2,2.5-3.3,3.2c-1.1,0.8-2.4,1.3-3.6,1.8c-0.2,0.1-0.8-0.3-0.9-0.6
	c-0.7-2,0.4-3.6,1.3-5.2c0.4-0.8,1-1.5,1.7-2c1-0.8,0.8-1.6,0.4-2.5c-0.2-0.5-0.6-1-0.9-1.5c-0.6-0.9-1.4-1.7-1.1-3.1
	c0.2-0.9-0.3-1.9-0.4-2.8c0-0.5,0.2-1.2,0.6-1.5c0.2-0.2,0.9,0.2,1.4,0.4c1.9,0.7,2.3,2.7,3.5,4.1c1,1.2,1.4,1.5,2.7,0.6
	c-0.8-1.6-0.2-2.6,1.7-2.7c0.9-0.1,1.8,0.1,2.2-1.2c0.1-0.4,0.9-0.7,1.3-1c-0.5-1.1-1.2-2.2-1.6-3.4c-0.5-1.2,0-1.8,1.2-2.2
	c2.8-0.8,5.1,0.4,7.5,1.6c0.5,0.2,1.1,0.2,1.6,0.2c0.7,0.1,1.4,0.1,2.1,0.2c3.3,0.3,6.3,1.7,8.4,4.1c1.4,1.5,3.1,2.4,4.5,3.7
	c1.9,1.7,3.3,3.7,3.7,6.4c0,0.1,0.1,0.2,0.1,0.3c0.8,1.5,0.8,2-0.4,3c-1.1,0.9-2.4,1.7-3.7,2.3c-2.5,1.1-5,2.2-7.5,3.1
	c-2.9,1.1-5.9,1.8-9,1.7c-0.5,0-1.2,0-1.6-0.3c-1.2-1-2.2-0.7-3.4-0.1c-1,0.6-2.2,1.1-3.3,1.1c-2.4-0.1-2.6-0.7-3.2-3.3
	C127.8,74.5,127,73.1,126.4,71.4z"/>
</svg>
