<svg xmlns="http://www.w3.org/2000/svg" xmlns:xlink="http://www.w3.org/1999/xlink" viewBox="0 0 352.48 412.13"><defs><style>.cls-1,.cls-3,.cls-4,.cls-6,.cls-7{fill:none;}.cls-2{clip-path:url(#clip-path);}.cls-3,.cls-4,.cls-6,.cls-7{stroke:#0b0b0d;stroke-linecap:round;stroke-linejoin:round;}.cls-3{stroke-width:2.09px;}.cls-4{stroke-width:2.04px;}.cls-5{clip-path:url(#clip-path-2);}.cls-6{stroke-width:1.89px;}.cls-7{stroke-width:1.84px;}.cls-8{clip-path:url(#clip-path-3);}.cls-9{clip-path:url(#clip-path-4);}.cls-10{clip-path:url(#clip-path-5);}.cls-11{clip-path:url(#clip-path-6);}.cls-12{clip-path:url(#clip-path-7);}.cls-13{clip-path:url(#clip-path-8);}.cls-14{clip-path:url(#clip-path-9);}</style><clipPath id="clip-path"><rect class="cls-1" x="70.17" y="98.21" width="216" height="216"/></clipPath><clipPath id="clip-path-2"><path class="cls-1" d="M128.8,152c2.44-9.54,19.24-33.87,21.75-35.13,13.44-6.72,36.56-.72,51.44,0,3.76,7.95,8.56,14.28,13.8,20.91,2.11,2.67,6.38,9.93,6.37,13.64,0,1.63,4.25.69,3.52,2.3-2.42,5.32-13.35,16.84-16.12,22-2.18,4-4.13,12-8,14.76-3.64,2.56-11.82,1.36-16.34,1.76a153.36,153.36,0,0,1-20.37.61c-2.76-.13-11.13.15-13.49-1.35-3.05-1.94-4.57-7.44-6.67-10.76-2.6-4.11-10.11-12.42-11.68-17C131.65,159.8,128.42,156.64,128.8,152Z"/></clipPath><clipPath id="clip-path-3"><path class="cls-1" d="M128.8,262c2.44-9.54,19.24-33.87,21.75-35.13,13.44-6.72,36.56-.72,51.44,0,3.76,7.95,8.56,14.28,13.8,20.91,2.11,2.67,6.38,9.93,6.37,13.64,0,1.63,4.25.69,3.52,2.3-2.42,5.32-13.35,16.84-16.12,22-2.18,4-4.13,12-8,14.76-3.64,2.56-11.82,1.36-16.34,1.76a153.36,153.36,0,0,1-20.37.61c-2.76-.13-11.13.15-13.49-1.35-3.05-1.94-4.57-7.44-6.67-10.76-2.6-4.11-10.11-12.42-11.68-17C131.65,269.8,128.42,266.64,128.8,262Z"/></clipPath><clipPath id="clip-path-4"><path class="cls-1" d="M20.8,208c2.44-9.54,19.24-33.87,21.75-35.13,13.44-6.72,36.56-.72,51.44,0,3.76,7.95,8.56,14.28,13.8,20.91,2.11,2.67,6.38,9.93,6.37,13.64,0,1.63-1.87,8.17-2.6,9.78-2.42,5.32-7.23,9.36-10,14.5-2.18,4-4.13,12-8,14.76-3.64,2.56-11.82,1.36-16.34,1.76a153.36,153.36,0,0,1-20.37.61c-2.76-.13-11.13.15-13.49-1.35-3.05-1.94-8.23-9.88-10.33-13.2-2.6-4.11-6.45-10-8-14.57C23.65,215.8,20.42,212.64,20.8,208Z"/></clipPath><clipPath id="clip-path-5"><path class="cls-1" d="M235.8,207c2.44-9.54,19.24-33.87,21.75-35.13,13.44-6.72,36.56-.72,51.44,0,3.76,7.95,8.56,14.28,13.8,20.91,2.11,2.67,6.38,9.93,6.37,13.64,0,1.63-1.87,8.17-2.6,9.78-2.42,5.32-7.23,9.36-10,14.5-2.18,4-4.13,12-8,14.76-3.64,2.56-11.82,1.36-16.34,1.76a153.36,153.36,0,0,1-20.37.61c-2.76-.13-11.13.15-13.49-1.35-3.05-1.94-8.23-9.88-10.33-13.2-2.6-4.11-6.45-10-8-14.57C238.65,214.8,235.42,211.64,235.8,207Z"/></clipPath><clipPath id="clip-path-6"><path class="cls-1" d="M235.8,99c2.44-9.54,19.24-33.87,21.75-35.13,13.44-6.72,36.56-.72,51.44,0,3.76,7.95,8.56,14.28,13.8,20.91,2.11,2.67,6.38,9.93,6.37,13.64,0,1.63-1.87,8.17-2.6,9.78-2.42,5.32-7.23,9.36-10,14.5-2.18,4-4.13,12-8,14.76-3.64,2.56-11.82,1.36-16.34,1.76a153.36,153.36,0,0,1-20.37.61c-2.76-.13-11.13.15-13.49-1.35-3.05-1.94-6.45-9.62-8.55-12.94-2.6-4.11-8.23-10.24-9.8-14.83C238.65,106.8,235.42,103.64,235.8,99Z"/></clipPath><clipPath id="clip-path-7"><path class="cls-1" d="M21.8,99C24.24,89.45,41,65.11,43.55,63.86,57,57.14,80.1,63.14,95,63.86c3.76,7.95,8.56,14.28,13.8,20.91,2.11,2.67,6.38,9.93,6.37,13.64,0,1.63-1.87,8.17-2.6,9.78-2.42,5.32-7.23,9.36-10,14.5-2.18,4-4.13,12-8,14.76-3.64,2.56-11.82,1.36-16.34,1.76a153.36,153.36,0,0,1-20.37.61c-2.76-.13-11.13.15-13.49-1.35-3.05-1.94-8.23-9.88-10.33-13.2-2.6-4.11-6.45-10-8-14.57C24.65,106.8,21.42,103.64,21.8,99Z"/></clipPath><clipPath id="clip-path-8"><path class="cls-1" d="M235.8,314c2.44-9.54,19.24-33.87,21.75-35.13,13.44-6.72,36.56-.72,51.44,0,3.76,7.95,8.56,14.28,13.8,20.91,2.11,2.67,6.38,9.93,6.37,13.64,0,1.63-1.87,8.17-2.6,9.78-2.42,5.32-7.23,9.36-10,14.5-2.18,4-4.13,12-8,14.76-3.64,2.56-11.82,1.36-16.34,1.76a153.36,153.36,0,0,1-20.37.61c-2.76-.13-11.13.15-13.49-1.35-3.05-1.94-8.23-9.88-10.33-13.2-2.6-4.11-6.45-10-8-14.57C238.65,321.8,235.42,318.64,235.8,314Z"/></clipPath><clipPath id="clip-path-9"><path class="cls-1" d="M21.8,314c2.44-9.54,19.24-33.87,21.75-35.13,13.44-6.72,36.56-.72,51.44,0,3.76,7.95,8.56,14.28,13.8,20.91,2.11,2.67,6.38,9.93,6.37,13.64,0,1.63-1.87,8.17-2.6,9.78-2.42,5.32-7.23,9.36-10,14.5-2.18,4-4.13,12-8,14.76-3.64,2.56-11.82,1.36-16.34,1.76a153.36,153.36,0,0,1-20.37.61c-2.76-.13-11.13.15-13.49-1.35-3.05-1.94-8.23-9.88-10.33-13.2-2.6-4.11-6.45-10-8-14.57C24.65,321.8,21.42,318.64,21.8,314Z"/></clipPath><symbol id="New_Symbol" data-name="New Symbol" viewBox="0 0 352.48 412.13"><g class="cls-2"><path class="cls-3" d="M127.55,151.15c2.3,4,4.19,10.61,6.27,14,2.3,3.76,5.07,7,7.64,10.55,3,4.14,6.38,10.36,10.41,15.53,13-1.23,49.91-1,50.11-1.57,1.62-4.9,11.12-19.14,12.76-21.61,4.26-6.39,11.46-14.31,10.88-14.19"/><path class="cls-3" d="M121.69,153.66c-.23-.44.26-.71-.35-.8,3.09,8.48,22.36,37.88,26.9,42.41.42.42,27.63.51,35,.17s13.5-1.61,20.67-1.61c2.89-3.58,6.11-8.76,8.61-12,3.57-4.69,6.27-9.81,9.75-14.54,4.39-6,5.09-7.69,9.2-13.8"/><path class="cls-3" d="M116.68,151.57c1.72,5.24,8.71,19.11,11.08,23.63,3.38,6.44,14,18.57,17.12,25,.44.91,30.55,1.24,39.6,0,7.44-1.06,15.26-.87,22.58-1.35-.87-1.15,16.09-24.05,20.22-29.9,3.13-4.43,11.25-14.6,11.71-15.05"/><path class="cls-3" d="M244.43,153c-5.16,7.1-8.44,10.15-13.38,17.56-5.17,7.75-22.16,32.62-22.16,32.62s-.3,1.06-6.81,1c-5.52,0-45,2.92-59.06,1.25-4-.48-4.81-5.1-7.19-8.63-3.25-4.81-25.77-41.06-26.78-44.86"/><path class="cls-4" d="M127.55,151c2.3-3.77,11.34-19.92,13.9-23.28,3-3.92,6-9.47,10-14.36,15.2-.1,49.91,1.77,50.11,2.33,1.62,4.65,11.54,17,13.18,19.29,4.26,6.06,11.67,18.08,11.09,18"/><path class="cls-4" d="M121.48,153c3.09-8,22.23-39.5,26.76-43.8.42-.4,27.63-.49,35-.16s13.5,1.53,20.67,1.52c2.89,3.4,6.11,8.3,8.61,11.42,3.57,4.44,6.27,9.29,9.75,13.78,4.39,5.67,5.51,11,9.62,16.83"/><path class="cls-4" d="M115.84,150.65c1.72-5,9.54-18.11,11.92-22.39,3.38-6.1,12-15.88,15.14-22,.44-.86,32.54-2.9,41.59-1.68,6.84.92,14,.84,20.78,1.18a2.62,2.62,0,0,1,2.21,1.43c2.51,5,15,22.17,18.56,27,3.13,4.2,11.88,19.19,12.34,19.62"/><path class="cls-4" d="M244.22,153.42c-5.16-6.73-8.23-13.78-13.17-20.81-5.17-7.35-20.79-30-20.79-30S209,100,202.5,100c-5.52,0-44.21.64-59.06.65-4.06,0-5.23,3.66-7.61,7-3.25,4.56-25.46,39.65-26.47,43.25"/><g class="cls-5"><path class="cls-6" d="M132.36,100.58c2.07,3.58,3.78,9.57,5.65,12.63,2.08,3.39,4.57,6.33,6.89,9.52,2.71,3.74,5.75,9.35,9.39,14,11.76-1.11,45-.89,45.2-1.42,1.46-4.42,10-17.27,11.52-19.49,3.85-5.77,10.34-12.91,9.81-12.8"/><path class="cls-6" d="M127.08,102.84c-.21-.39.24-.64-.31-.72,2.79,7.65,20.17,34.17,24.27,38.26.38.38,24.92.46,31.56.16s11.46.37,17.92.37c2.61-3.23,6.23-9.72,8.49-12.69,3.22-4.23,5.66-8.85,8.8-13.12,4-5.4,4.59-6.93,8.3-12.45"/><path class="cls-6" d="M122.56,101c1.56,4.73,7.86,17.24,10,21.31,3.05,5.81,12.61,16.76,15.44,22.57.4.82,48.85.68,55.45.25-.79-1,15.16-23.2,18.89-28.48,2.83-4,10.15-13.17,10.56-13.58"/><path class="cls-6" d="M237.8,102.27c-4.66,6.41-7.62,9.16-12.07,15.84-4.66,7-20.41,31.52-20.41,31.52s-.27,1-6.14.94c-5,0-39.22-1.73-52.19-1.73-.84,0-5-5.6-7.11-8.78-2.93-4.34-23.3-35.28-24.21-38.7"/><path class="cls-7" d="M132.36,100.48c2.07-3.4,10.23-18,12.54-21,2.71-3.54,5.38-8.54,9-13,13.72-.09,45,1.59,45.2,2.1C200.58,72.82,209.53,83.92,211,86c3.85,5.46,10.53,16.31,10,16.2"/><path class="cls-7" d="M126.89,102.27C129.68,95,146.94,66.64,151,62.76c.38-.36,24.92-.44,31.56-.15S194.78,64,201.24,64c2.61,3.06,5.51,7.49,7.77,10.3,3.22,4,5.66,8.38,8.8,12.43,4,5.12,5,10,8.68,15.18"/><path class="cls-7" d="M121.8,100.12c1.56-4.48,8.61-16.34,10.75-20.2C135.6,74.41,145.16,64,148,58.53c.4-.78,27.56-1.06,35.73,0,6.72.9,13.77.74,20.37,1.15-.79,1,13.38,20.57,17.11,25.56,2.83,3.79,10.71,17.31,11.13,17.7"/><path class="cls-7" d="M237.62,102.63c-4.66-6.07-7.43-12.43-11.88-18.77-4.66-6.63-19.62-29-19.62-29s-.27-.9-6.14-.89L146.32,54c-3.66,0-4.34,4.36-6.49,7.38-2.93,4.11-23,35.77-23.88,39"/><path class="cls-6" d="M134,199.2c2.07,3.58,3.78,9.57,5.65,12.63,2.08,3.39,4.57,6.33,6.89,9.52,2.71,3.74,5.38,9,9,13.63,11.76-1.11,45-.89,45.2-1.42,1.46-4.42,10.41-16.89,11.89-19.11,3.85-5.77,10.34-12.91,9.81-12.8"/><path class="cls-6" d="M128.76,201.47c-.21-.39.24-.64-.31-.72,2.79,7.65,20.17,34.17,24.27,38.26.38.38,24.92,2,31.56,1.67s12.18-1.08,18.64-1.07c2.61-3.23,5.51-9.79,7.77-12.75,3.22-4.23,5.66-8.85,8.8-13.12,4-5.4,4.59-6.93,8.3-12.45"/><path class="cls-6" d="M124.23,199.58c1.56,4.73,7.86,17.24,10,21.31,3.05,5.81,12.61,16.76,15.44,22.57.4.82,27.56,3,35.73,1.85,6.72-1,13.77-.78,20.37-1.22-.79-1,14.51-23.58,18.24-28.86,2.83-4,10.15-13.17,10.56-13.58"/><path class="cls-6" d="M239.48,200.9c-4.66,6.41-7.62,9.16-12.07,15.84-4.66,7-20.37,31.31-20.37,31.31s-.27,1-6.14.94c-5,0-40.26.74-52.9-.75-3.64-.43-4.34-4.6-6.49-7.78-2.93-4.34-23.25-37-24.16-40.46"/><path class="cls-7" d="M134,199.11c2.07-3.4,10.23-18,12.54-21,2.71-3.54,5.38-8.54,9-13,15.22-1.22,45,1.59,45.2,2.1,1.46,4.19,10.41,15.29,11.89,17.4,3.85,5.46,10.53,16.31,10,16.2"/><path class="cls-7" d="M128.57,200.9c2.79-7.25,20.05-35.64,24.14-39.52.38-.36,24.92-.44,31.56-.15s12.18,1.38,18.64,1.37c2.61,3.06,5.51,7.49,7.77,10.3,3.22,4,5.66,8.38,8.8,12.43,4,5.12,5,10,8.68,15.18"/><path class="cls-7" d="M123.47,198.75c1.56-4.48,8.61-16.34,10.75-20.2,3.05-5.51,12.61-15.88,15.44-21.39.4-.78,27.56-1.06,35.73,0,6.72.9,13.77.74,20.37,1.15-.79,1,13.38,20.57,17.11,25.56,2.83,3.79,10.71,17.31,11.13,17.7"/><path class="cls-7" d="M239.29,201.25c-4.66-6.07-7.43-12.43-11.88-18.77-4.66-6.63-21.33-28-21.33-28s-.27-.9-6.14-.89c-5,0-34.75-1.65-51.94-1-1.23,0-4.34,4.36-6.49,7.38-2.93,4.11-23,35.77-23.88,39"/></g><path class="cls-3" d="M127.55,261.15c2.3,4,4.19,10.61,6.27,14,2.3,3.76,5.07,7,7.64,10.55,3,4.14,6.38,10.36,10.41,15.53,13-1.23,49.91-1,50.11-1.57,1.62-4.9,11.12-19.14,12.76-21.61,4.26-6.39,11.46-14.31,10.88-14.19"/><path class="cls-3" d="M121.69,263.66c-.23-.44.26-.71-.35-.8,3.09,8.48,22.66,36.79,27.2,41.33.42.42,24.64.34,32,0s15.46,0,22.63,0c2.89-3.58,6.84-9.1,9.34-12.39,3.57-4.69,6.27-9.81,9.75-14.54,4.39-6,5.09-7.69,9.2-13.8"/><path class="cls-3" d="M115.84,260.65c3.65,15.75,24.32,40.34,27.46,46.78.44.91,55,1.48,62.37,1,1.63-2,17.49-23.66,21.62-29.51,3.13-4.43,9.87-15.8,10.33-16.25"/><path class="cls-3" d="M243.29,261c-5.16,7.1-7.3,12.23-12.24,19.64-5.17,7.75-21.69,30.46-21.69,30.46s-.84,1.53-7.34,1.52c-5.52,0-44.71,1.66-58.73,0-4-.48-3.68-1.61-6.07-5.14C134,302.62,110.06,265.83,109,262"/><path class="cls-4" d="M127.55,261c2.3-3.77,11.34-19.92,13.9-23.28,3-3.92,6-9.47,10-14.36,15.2-.1,49.91,1.77,50.11,2.33,1.62,4.65,11.54,17,13.18,19.29,4.26,6.06,11.67,18.08,11.09,18"/><path class="cls-4" d="M121.48,263c3.09-8,22.23-39.5,26.76-43.8.42-.4,27.63-.49,35-.16s13.5,1.53,20.67,1.52c2.89,3.4,6.11,8.3,8.61,11.42,3.57,4.44,6.27,9.29,9.75,13.78,4.39,5.67,5.51,11,9.62,16.83"/><path class="cls-4" d="M115.84,260.65c1.72-5,9.54-18.11,11.92-22.39,3.38-6.1,14-17.61,17.12-23.71.44-.86,30.55-1.18,39.6,0,7.44,1,15.26.82,22.58,1.28-.87,1.09,14.84,22.8,19,28.34,3.13,4.2,11.12,18,11.58,18.48"/><path class="cls-4" d="M243.29,261c-5.16-6.73-7.3-11.32-12.24-18.34-5.17-7.35-21.75-32.19-21.75-32.19s-.3-1-6.81-1l-59.48.09c-4.06,0-4.81,4.83-7.19,8.18-3.25,4.56-25.46,39.65-26.47,43.25"/><g class="cls-8"><path class="cls-6" d="M132.36,210.58c2.07,3.58,3.78,9.57,5.65,12.63,2.08,3.39,4.57,6.33,6.89,9.52,2.71,3.74,5.75,9.35,9.39,14,11.76-1.11,45-.89,45.2-1.42,1.46-4.42,10-17.27,11.52-19.49,3.85-5.77,10.34-12.91,9.81-12.8"/><path class="cls-6" d="M127.08,212.84c-.21-.39.24-.64-.31-.72,2.79,7.65,20.17,34.17,24.27,38.26.38.38,24.92.46,31.56.16s11.46.37,17.92.37c2.61-3.23,6.23-9.72,8.49-12.69,3.22-4.23,5.66-8.85,8.8-13.12,4-5.4,4.59-6.93,8.3-12.45"/><path class="cls-6" d="M122.56,211c1.56,4.73,7.86,17.24,10,21.31,3.05,5.81,12.61,16.76,15.44,22.57.4.82,48.85.68,55.45.25-.79-1,15.16-23.2,18.89-28.48,2.83-4,10.15-13.17,10.56-13.58"/><path class="cls-6" d="M237.8,212.27c-4.66,6.41-7.62,9.16-12.07,15.84-4.66,7-20.41,31.52-20.41,31.52s-.27,1-6.14.94c-5,0-39.22-1.73-52.19-1.73-.84,0-5-5.6-7.11-8.78-2.93-4.34-23.3-35.28-24.21-38.7"/><path class="cls-7" d="M132.36,210.48c2.07-3.4,10.23-18,12.54-21,2.71-3.54,5.38-8.54,9-13,13.72-.09,45,1.59,45.2,2.1,1.46,4.19,10.41,15.29,11.89,17.4,3.85,5.46,10.53,16.31,10,16.2"/><path class="cls-7" d="M126.89,212.27c2.79-7.25,20.05-35.64,24.14-39.52.38-.36,24.92-.44,31.56-.15S194.78,174,201.24,174c2.61,3.06,5.51,7.49,7.77,10.3,3.22,4,5.66,8.38,8.8,12.43,4,5.12,5,10,8.68,15.18"/><path class="cls-7" d="M121.8,210.12c1.56-4.48,8.61-16.34,10.75-20.2,3.05-5.51,12.61-15.88,15.44-21.39.4-.78,27.56-1.06,35.73,0,6.72.9,13.77.74,20.37,1.15-.79,1,13.38,20.57,17.11,25.56,2.83,3.79,10.71,17.31,11.13,17.7"/><path class="cls-7" d="M237.62,212.63c-4.66-6.07-7.43-12.43-11.88-18.77-4.66-6.63-19.62-29-19.62-29s-.27-.9-6.14-.89l-53.65.08c-3.66,0-4.34,4.36-6.49,7.38-2.93,4.11-23,35.77-23.88,39"/><path class="cls-6" d="M134,309.2c2.07,3.58,3.78,9.57,5.65,12.63,2.08,3.39,4.57,6.33,6.89,9.52,2.71,3.74,5.38,9,9,13.63,11.76-1.11,45-.89,45.2-1.42,1.46-4.42,10.41-16.89,11.89-19.11,3.85-5.77,10.34-12.91,9.81-12.8"/><path class="cls-6" d="M128.76,311.47c-.21-.39.24-.64-.31-.72,2.79,7.65,20.17,34.17,24.27,38.26.38.38,24.92,2,31.56,1.67s12.18-1.08,18.64-1.07c2.61-3.23,5.51-9.79,7.77-12.75,3.22-4.23,5.66-8.85,8.8-13.12,4-5.4,4.59-6.93,8.3-12.45"/><path class="cls-6" d="M124.23,309.58c1.56,4.73,7.86,17.24,10,21.31,3.05,5.81,12.61,16.76,15.44,22.57.4.82,27.56,3,35.73,1.85,6.72-1,13.77-.78,20.37-1.22-.79-1,14.51-23.58,18.24-28.86,2.83-4,10.15-13.17,10.56-13.58"/><path class="cls-6" d="M239.48,310.9c-4.66,6.41-7.62,9.16-12.07,15.84-4.66,7-20.37,31.31-20.37,31.31s-.27,1-6.14.94c-5,0-40.26.74-52.9-.75-3.64-.43-4.34-4.6-6.49-7.78-2.93-4.34-23.25-37-24.16-40.46"/><path class="cls-7" d="M134,309.11c2.07-3.4,10.23-18,12.54-21,2.71-3.54,5.38-8.54,9-13,15.22-1.22,45,1.59,45.2,2.1,1.46,4.19,10.41,15.29,11.89,17.4,3.85,5.46,10.53,16.31,10,16.2"/><path class="cls-7" d="M128.57,310.9c2.79-7.25,20.05-35.64,24.14-39.52.38-.36,24.92-.44,31.56-.15s12.18,1.38,18.64,1.37c2.61,3.06,5.51,7.49,7.77,10.3,3.22,4,5.66,8.38,8.8,12.43,4,5.12,5,10,8.68,15.18"/><path class="cls-7" d="M123.47,308.75c1.56-4.48,8.61-16.34,10.75-20.2,3.05-5.51,12.61-15.88,15.44-21.39.4-.78,27.56-1.06,35.73,0,6.72.9,13.77.74,20.37,1.15-.79,1,13.38,20.57,17.11,25.56,2.83,3.79,10.71,17.31,11.13,17.7"/><path class="cls-7" d="M239.29,311.25c-4.66-6.07-7.43-12.43-11.88-18.77-4.66-6.63-21.33-28-21.33-28s-.27-.9-6.14-.89c-5,0-34.75-1.65-51.94-1-1.23,0-4.34,4.36-6.49,7.38-2.93,4.11-23,35.77-23.88,39"/></g><path class="cls-3" d="M19.55,207.15c2.3,4,4.19,10.61,6.27,14,2.3,3.76,5.07,7,7.64,10.55,3,4.14,6.38,10.36,10.41,15.53,26.54-3.82,49.91-1,50.11-1.57,1.62-4.9,11.12-19.14,12.76-21.61,4.26-6.39,11.46-14.31,10.88-14.19"/><path class="cls-3" d="M13.69,209.66c-.23-.44.26-.71-.35-.8,3.09,8.48,22.36,37.88,26.9,42.41.42.42,21.67-.28,29-.62s19.45-.82,26.62-.81c2.89-3.58,6.11-8.76,8.61-12,3.57-4.69,6.27-9.81,9.75-14.54,4.39-6,5.09-7.69,9.2-13.8"/><path class="cls-3" d="M8.68,207.57c1.72,5.24,8.71,19.11,11.08,23.63,3.38,6.44,14,18.57,17.12,25,.44.91,24.14.81,33.19-.47,7.44-1.06,21.68-.44,29-.92-.87-1.15,16.09-24.05,20.22-29.9,3.13-4.43,11.25-14.6,11.71-15.05"/><path class="cls-3" d="M136.43,209c-5.16,7.1-8.44,10.15-13.38,17.56-5.17,7.75-22.16,32.62-22.16,32.62s-26.59.75-33.1.74c-5.52,0-18.75,3.22-32.77,1.56-4-.48-4.81-5.1-7.19-8.63C24.58,248.07,2.06,211.83,1,208"/><path class="cls-4" d="M19.55,207c2.3-3.77,11.34-19.92,13.9-23.28,3-3.92,5.67-10.17,9.7-15.07,15.2-.1,50.17,1.33,50.36,1.89,1.62,4.65,11.57,18.09,13.22,20.43,4.26,6.06,11.67,18.08,11.09,18"/><path class="cls-4" d="M13.48,209c3.09-8,22.23-39.5,26.76-43.8.42-.4,22.18-1.63,29.54-1.31s18.95,2.67,26.11,2.67c2.89,3.4,6.11,8.3,8.61,11.42,3.57,4.44,6.27,9.29,9.75,13.78,4.39,5.67,5.51,11,9.62,16.83"/><path class="cls-4" d="M7.84,206.65c1.72-5,9.54-18.11,11.92-22.39,3.38-6.1,14-17.61,17.12-23.71.44-.86,23.73-1.76,32.86-1.76,12.58,0,22,2.63,29.33,3.08-.87,1.09,14.84,22.8,19,28.34,3.13,4.2,11.88,19.19,12.34,19.62"/><path class="cls-4" d="M136.22,209.42c-5.16-6.73-8.23-13.78-13.17-20.81-5.17-7.35-21.75-32.19-21.75-32.19s-24.73-1-31.24-1c-5.52,0-20.2.07-35,.09-4.06,0-4.81,4.83-7.19,8.18-3.25,4.56-25.46,39.65-26.47,43.25"/><g class="cls-9"><path class="cls-6" d="M24.36,156.58c2.07,3.58,3.78,9.57,5.65,12.63,2.08,3.39,4.57,6.33,6.89,9.52,2.71,3.74,5.75,9.35,9.39,14,15-3.41,45-.89,45.2-1.42,1.46-4.42,10-17.27,11.52-19.49,3.85-5.77,10.34-12.91,9.81-12.8"/><path class="cls-6" d="M19.08,158.84c-.21-.39.24-.64-.31-.72,2.79,7.65,20.17,34.17,24.27,38.26.38.38,19-.36,25.63-.67s17.39,1.19,23.85,1.2c2.61-3.23,6.23-9.72,8.49-12.69,3.22-4.23,5.66-8.85,8.8-13.12,4-5.4,4.59-6.93,8.3-12.45"/><path class="cls-6" d="M14.56,157c1.56,4.73,7.86,17.24,10,21.31C27.6,184.08,37.16,195,40,200.84c.4.82,29.75-1.26,55.45.25-.79-1,15.16-23.2,18.89-28.48,2.83-4,10.15-13.17,10.56-13.58"/><path class="cls-6" d="M129.8,158.27c-4.66,6.41-7.62,9.16-12.07,15.84-4.66,7-20.41,31.52-20.41,31.52s-.39,2.11-6.14.94C78.71,204,52,204.85,39,204.85c-.84,0-5-5.6-7.11-8.78-2.93-4.34-23.3-35.28-24.21-38.7"/><path class="cls-7" d="M24.36,156.48c2.07-3.4,10.23-18,12.54-21,2.71-3.54,5.38-8.54,9-13,13.72-.09,45,1.59,45.2,2.1,1.46,4.19,10.41,15.29,11.89,17.4,3.85,5.46,10.53,16.31,10,16.2"/><path class="cls-7" d="M18.89,158.27C21.68,151,38.94,122.64,43,118.76c.38-.36,24.92-.44,31.56-.15S86.78,120,93.24,120c2.61,3.06,5.51,7.49,7.77,10.3,3.22,4,5.66,8.38,8.8,12.43,4,5.12,5,10,8.68,15.18"/><path class="cls-7" d="M13.8,156.12c1.56-4.48,8.61-16.34,10.75-20.2C27.6,130.41,37.16,120,40,114.53c.4-.78,27.56-1.06,35.73,0,6.72.9,13.77.74,20.37,1.15-.79,1,13.38,20.57,17.11,25.56,2.83,3.79,10.71,17.31,11.13,17.7"/><path class="cls-7" d="M129.62,158.63c-4.66-6.07-7.43-12.43-11.88-18.77-4.66-6.63-19.62-29-19.62-29s-.27-.9-6.14-.89L38.32,110c-3.66,0-4.34,4.36-6.49,7.38-2.93,4.11-23,35.77-23.88,39"/><path class="cls-6" d="M26,255.2c2.07,3.58,3.78,9.57,5.65,12.63,2.08,3.39,4.57,6.33,6.89,9.52,2.71,3.74,5.38,9,9,13.63,11.76-1.11,45-.89,45.2-1.42,1.46-4.42,10.41-16.89,11.89-19.11,3.85-5.77,10.34-12.91,9.81-12.8"/><path class="cls-6" d="M20.76,257.47c-.21-.39.24-.64-.31-.72,2.79,7.65,20.17,34.17,24.27,38.26.38.38,24.92,2,31.56,1.67s12.18-1.08,18.64-1.07c2.61-3.23,5.51-9.79,7.77-12.75,3.22-4.23,5.66-8.85,8.8-13.12,4-5.4,4.59-6.93,8.3-12.45"/><path class="cls-6" d="M16.23,255.58c1.56,4.73,7.86,17.24,10,21.31,3.05,5.81,12.61,16.76,15.44,22.57.4.82,27.56,3,35.73,1.85,6.72-1,13.77-.78,20.37-1.22-.79-1,14.51-23.58,18.24-28.86,2.83-4,10.15-13.17,10.56-13.58"/><path class="cls-6" d="M131.48,256.9c-4.66,6.41-7.62,9.16-12.07,15.84-4.66,7-20.37,31.31-20.37,31.31s-.27,1-6.14.94c-5,0-40.26.74-52.9-.75-3.64-.43-4.34-4.6-6.49-7.78-2.93-4.34-23.25-37-24.16-40.46"/><path class="cls-7" d="M26,255.11c2.07-3.4,10.23-18,12.54-21,2.71-3.54,5.75-8.87,9.39-13.29,20.68-1.31,22.41-.34,44.83.43,1.46,4.19,10.41,17.29,11.89,19.4,3.85,5.46,10.53,16.31,10,16.2"/><path class="cls-7" d="M20.57,256.9c2.79-7.25,20.05-35.64,24.14-39.52.38-.36,18.25-1.76,24.89-1.47s18.85,1.7,25.32,1.69c2.61,3.06,5.51,8.49,7.77,11.3,3.22,4,5.66,8.38,8.8,12.43,4,5.12,5,10,8.68,15.18"/><path class="cls-7" d="M15.47,254.75c1.56-4.48,8.61-16.34,10.75-20.2,3.05-5.51,12.61-15.88,15.44-21.39.4-.78,20.76-1.45,29-1.45,11,0,20.5,2.23,27.1,2.64-.79,1,13.38,20.57,17.11,25.56,2.83,3.79,10.71,17.31,11.13,17.7"/><path class="cls-7" d="M131.29,257.25c-4.66-6.07-7.43-12.43-11.88-18.77-4.66-6.63-21.33-28-21.33-28a53.13,53.13,0,0,0-6.14-.89C71,207,57.19,208,40,208.63c-1.23,0-4.34,4.36-6.49,7.38-2.93,4.11-23,35.77-23.88,39"/></g><path class="cls-3" d="M234.55,206.15c2.3,4,4.19,10.61,6.27,14,2.3,3.76,5.91,10,8.48,13.55,3,4.14,5.54,7.36,9.57,12.53,13-1.23,49.91-1,50.11-1.57,1.62-4.9,11.12-19.14,12.76-21.61,4.26-6.39,11.46-14.31,10.88-14.19"/><path class="cls-3" d="M228.69,208.66c-.23-.44.26-.71-.35-.8,3.09,8.48,22.36,37.88,26.9,42.41.42.42,27.63.51,35,.17s13.5-1.61,20.67-1.61c2.89-3.58,6.11-8.76,8.61-12,3.57-4.69,6.27-9.81,9.75-14.54,4.39-6,5.09-7.69,9.2-13.8"/><path class="cls-3" d="M222.84,205.65c1.72,5.24,9.54,20,11.92,24.55,3.38,6.44,14,18.57,17.12,25,.44.91,30.55,1.24,39.6,0,7.44-1.06,15.26-.87,22.58-1.35-.87-1.15,16.09-24.05,20.22-29.9,3.13-4.43,11.25-14.6,11.71-15.05"/><path class="cls-3" d="M351.43,208c-5.16,7.1-8.44,10.15-13.38,17.56-5.17,7.75-22.16,32.62-22.16,32.62s-18.57,1.49-25.08,1.48c-5.52,0-26.87.43-40.89-1.23-4-.48-4.29-2.4-6.67-5.93C240,247.71,217.06,210.83,216,207"/><path class="cls-4" d="M234.55,206c2.3-3.77,11.34-19.92,13.9-23.28,3-3.92,6-9.47,10-14.36,15.2-.1,49.91,1.77,50.11,2.33,1.62,4.65,11.54,17,13.18,19.29,4.26,6.06,11.67,18.08,11.09,18"/><path class="cls-4" d="M228.48,207.33c3.09-8,22.23-38.8,26.76-43.1.42-.4,27.63-.49,35-.16s13.5,1.53,20.67,1.52c2.89,3.4,6.11,8.3,8.61,11.42,3.57,4.44,6.27,9.29,9.75,13.78,4.39,5.67,5.51,11,9.62,16.83"/><path class="cls-4" d="M222.84,205.65c1.72-5,10.38-17.56,12.75-21.84,3.38-6.1,13.14-17.16,16.28-23.27.44-.86,27.52-2.78,36.57-1.56,7.44,1,18.3,1.42,25.62,1.88-.87,1.09,14.84,22.8,19,28.34,3.13,4.2,11.88,19.19,12.34,19.62"/><path class="cls-4" d="M351.22,208.42c-5.16-6.73-8.23-13.78-13.17-20.81-5.17-7.35-21.75-32.19-21.75-32.19H286.22c-5.52,0-21.35,1.07-36.19,1.09-4.06,0-4.81,2.83-7.19,6.18-3.25,4.56-25.77,40.74-26.78,44.33"/><g class="cls-10"><path class="cls-6" d="M239.36,155.58c2.07,3.58,3.78,9.57,5.65,12.63,2.08,3.39,4.57,6.33,6.89,9.52,2.71,3.74,5.75,9.35,9.39,14,11.76-1.11,45-.89,45.2-1.42,1.46-4.42,10-17.27,11.52-19.49,3.85-5.77,10.34-12.91,9.81-12.8"/><path class="cls-6" d="M234.08,157.84c-.21-.39.24-.64-.31-.72,2.79,7.65,20.17,34.17,24.27,38.26.38.38,24.92.46,31.56.16s11.46.37,17.92.37c2.61-3.23,6.23-9.72,8.49-12.69,3.22-4.23,5.66-8.85,8.8-13.12,4-5.4,4.59-6.93,8.3-12.45"/><path class="cls-6" d="M229.56,156c1.56,4.73,7.86,17.24,10,21.31,3.05,5.81,12.61,16.76,15.44,22.57.4.82,48.85.68,55.45.25-.79-1,15.16-23.2,18.89-28.48,2.83-4,10.15-13.17,10.56-13.58"/><path class="cls-6" d="M344.8,157.27c-4.66,6.41-7.62,9.16-12.07,15.84-4.66,7-20.41,31.52-20.41,31.52s-.27,1-6.14.94c-5,0-39.22-1.73-52.19-1.73-.84,0-5-5.6-7.11-8.78-2.93-4.34-23.3-35.28-24.21-38.7"/><path class="cls-7" d="M239.36,155.48c2.07-3.4,10.23-18,12.54-21,2.71-3.54,5.38-8.54,9-13,13.72-.09,45,1.59,45.2,2.1,1.46,4.19,10.41,15.29,11.89,17.4,3.85,5.46,10.53,16.31,10,16.2"/><path class="cls-7" d="M233.89,157.27c2.79-7.25,20.05-35.64,24.14-39.52.38-.36,24.92-.44,31.56-.15S301.78,119,308.24,119c2.61,3.06,5.51,7.49,7.77,10.3,3.22,4,5.66,8.38,8.8,12.43,4,5.12,5,10,8.68,15.18"/><path class="cls-7" d="M228.8,155.12c1.56-4.48,8.61-16.34,10.75-20.2,3.05-5.51,12.61-15.88,15.44-21.39.4-.78,27.56-1.06,35.73,0,6.72.9,13.77.74,20.37,1.15-.79,1,13.38,20.57,17.11,25.56,2.83,3.79,10.71,17.31,11.13,17.7"/><path class="cls-7" d="M344.62,157.63c-4.66-6.07-7.43-12.43-11.88-18.77-4.66-6.63-19.62-29-19.62-29s-.27-.9-6.14-.89l-53.65.08c-3.66,0-4.34,4.36-6.49,7.38-2.93,4.11-23,35.77-23.88,39"/><path class="cls-6" d="M241,254.2c2.07,3.58,3.78,9.57,5.65,12.63,2.08,3.39,4.57,6.33,6.89,9.52,2.71,3.74,5.38,9,9,13.63,11.76-1.11,45-.89,45.2-1.42,1.46-4.42,10.41-16.89,11.89-19.11,3.85-5.77,10.34-12.91,9.81-12.8"/><path class="cls-6" d="M235.76,256.47c-.21-.39.24-.64-.31-.72,2.79,7.65,20.17,34.17,24.27,38.26.38.38,24.92,2,31.56,1.67s12.18-1.08,18.64-1.07c2.61-3.23,5.51-9.79,7.77-12.75,3.22-4.23,5.66-8.85,8.8-13.12,4-5.4,4.59-6.93,8.3-12.45"/><path class="cls-6" d="M231.23,254.58c1.56,4.73,7.86,17.24,10,21.31,3.05,5.81,12.61,16.76,15.44,22.57.4.82,27.56,3,35.73,1.85,6.72-1,13.77-.78,20.37-1.22-.79-1,14.51-23.58,18.24-28.86,2.83-4,10.15-13.17,10.56-13.58"/><path class="cls-6" d="M346.48,255.9c-4.66,6.41-7.62,9.16-12.07,15.84-4.66,7-20.37,31.31-20.37,31.31s-.27,1-6.14.94c-5,0-40.26.74-52.9-.75-3.64-.43-4.34-4.6-6.49-7.78-2.93-4.34-23.25-37-24.16-40.46"/><path class="cls-7" d="M241,254.11c2.07-3.4,10.23-18,12.54-21,2.71-3.54,5.38-8.54,9-13,15.22-1.22,45,1.59,45.2,2.1,1.46,4.19,10.41,15.29,11.89,17.4,3.85,5.46,10.53,16.31,10,16.2"/><path class="cls-7" d="M235.57,255.9c2.79-7.25,20.05-35.64,24.14-39.52.38-.36,24.92-.44,31.56-.15s12.18,1.38,18.64,1.37c2.61,3.06,5.51,7.49,7.77,10.3,3.22,4,5.66,8.38,8.8,12.43,4,5.12,5,10,8.68,15.18"/><path class="cls-7" d="M230.47,253.75c1.56-4.48,8.61-16.34,10.75-20.2,3.05-5.51,12.61-15.88,15.44-21.39.4-.78,27.56-1.06,35.73,0,6.72.9,13.77.74,20.37,1.15-.79,1,13.38,20.57,17.11,25.56,2.83,3.79,10.71,17.31,11.13,17.7"/><path class="cls-7" d="M346.29,256.25c-4.66-6.07-7.43-12.43-11.88-18.77-4.66-6.63-21.33-28-21.33-28s-.27-.9-6.14-.89c-5,0-34.75-1.65-51.94-1-1.23,0-4.34,4.36-6.49,7.38-2.93,4.11-23,35.77-23.88,39"/></g><path class="cls-3" d="M234.55,98.15c2.3,4,4.19,10.61,6.27,14,2.3,3.76,14,20.91,18,26.08,13-1.23,49.91-1,50.11-1.57,1.62-4.9,11.12-19.14,12.76-21.61,4.26-6.39,11.46-14.31,10.88-14.19"/><path class="cls-3" d="M228.35,97.86c3.09,8.48,22.36,39.88,26.9,44.41.42.42,27.63.51,35,.17s13.5-1.61,20.67-1.61c2.89-3.58,6.11-8.76,8.61-12,3.57-4.69,6.27-9.81,9.75-14.54,4.39-6,5.09-7.69,9.2-13.8"/><path class="cls-3" d="M223.68,98.57c1.72,5.24,8.71,19.11,11.08,23.63,3.38,6.44,14,18.57,17.12,25,.44.91,30.55,1.24,39.6,0,7.44-1.06,15.26-.87,22.58-1.35-.87-1.15,16.09-24.05,20.22-29.9,3.13-4.43,11.25-14.6,11.71-15.05"/><path class="cls-3" d="M351.43,100c-5.16,7.1-8.44,10.15-13.38,17.56-5.17,7.75-22.16,32.62-22.16,32.62s-.3.06-6.81,0c-5.52,0-45,2.92-59.06,1.25-4-.48-4.81-4.1-7.19-7.63C239.58,139.07,217.06,102.83,216,99"/><path class="cls-4" d="M234.55,98c2.3-3.77,11.34-19.92,13.9-23.28,3-3.92,6-9.47,10-14.36,15.2-.1,49.91,1.77,50.11,2.33,1.62,4.65,11.54,17,13.18,19.29,4.26,6.06,11.67,18.08,11.09,18"/><path class="cls-4" d="M228.48,90c3.09-8,22.23-29.5,26.76-33.8.42-.4,27.63-.49,35-.16s13.5,1.53,20.67,1.52C313.8,61,317,65.89,319.51,69c3.57,4.44,6.27,9.29,9.75,13.78,4.39,5.67,5.51,11,9.62,16.83"/><path class="cls-4" d="M222.84,97.65c1.72-5,9.54-18.11,11.92-22.39,3.38-6.1,14-17.61,17.12-23.71.44-.86,30.55-1.18,39.6,0,7.44,1,15.26.82,22.58,1.28-.87,1.09,14.84,22.8,19,28.34,3.13,4.2,11.88,19.19,12.34,19.62"/><path class="cls-4" d="M351.22,100.42c-5.16-6.73-8.23-13.78-13.17-20.81-5.17-7.35-21.75-32.19-21.75-32.19s-.3-1-6.81-1L250,46.52c-4.06,0-4.81,4.83-7.19,8.18-3.25,4.56-25.46,39.65-26.47,43.25"/><g class="cls-11"><path class="cls-6" d="M239.36,47.58c2.07,3.58,3.78,9.57,5.65,12.63,2.08,3.39,4.57,6.33,6.89,9.52,2.71,3.74,5.75,9.35,9.39,14,11.76-1.11,45-.89,45.2-1.42C308,77.89,316.53,65,318,62.82c3.85-5.77,10.34-12.91,9.81-12.8"/><path class="cls-6" d="M234.08,49.84c-.21-.39.24-.64-.31-.72,2.79,7.65,20.17,34.17,24.27,38.26.38.38,24.92.46,31.56.16s11.46.37,17.92.37c2.61-3.23,6.23-9.72,8.49-12.69,3.22-4.23,5.66-8.85,8.8-13.12,4-5.4,4.59-6.93,8.3-12.45"/><path class="cls-6" d="M229.56,48c1.56,4.73,7.86,17.24,10,21.31C242.6,75.08,252.16,86,255,91.84c.4.82,48.85.68,55.45.25-.79-1,15.16-23.2,18.89-28.48,2.83-4,10.15-13.17,10.56-13.58"/><path class="cls-6" d="M344.8,49.27c-4.66,6.41-7.62,9.16-12.07,15.84-4.66,7-20.41,31.52-20.41,31.52s-.27,1-6.14.94c-5,0-39.22-1.73-52.19-1.73-.84,0-5-5.6-7.11-8.78-2.93-4.34-23.3-35.28-24.21-38.7"/><path class="cls-7" d="M239.36,47.48c2.07-3.4,10.23-18,12.54-21,2.71-3.54,5.38-8.54,9-13,13.72-.09,45,1.59,45.2,2.1C307.58,19.82,316.53,30.92,318,33c3.85,5.46,10.53,16.31,10,16.2"/><path class="cls-7" d="M233.89,49.27C236.68,42,253.94,13.64,258,9.76c.38-.36,24.92-.44,31.56-.15S301.78,11,308.24,11c2.61,3.06,5.51,7.49,7.77,10.3,3.22,4,5.66,8.38,8.8,12.43,4,5.12,5,10,8.68,15.18"/><path class="cls-7" d="M228.8,47.12c1.56-4.48,8.61-16.34,10.75-20.2C242.6,21.41,252.16,11,255,5.53c.4-.78,27.56-1.06,35.73,0,6.72.9,13.77.74,20.37,1.15-.79,1,13.38,20.57,17.11,25.56C331,36.07,338.92,49.6,339.33,50"/><path class="cls-7" d="M344.62,49.63c-4.66-6.07-7.43-12.43-11.88-18.77-4.66-6.63-19.62-29-19.62-29s-.27-.9-6.14-.89L253.32,1c-3.66,0-4.34,4.36-6.49,7.38-2.93,4.11-23,35.77-23.88,39"/><path class="cls-6" d="M241,146.2c2.07,3.58,3.78,9.57,5.65,12.63,2.08,3.39,4.57,6.33,6.89,9.52,2.71,3.74,5.38,9,9,13.63,11.76-1.11,45-.89,45.2-1.42,1.46-4.42,10.41-16.89,11.89-19.11,3.85-5.77,10.34-12.91,9.81-12.8"/><path class="cls-6" d="M235.76,148.47c-.21-.39.24-.64-.31-.72,2.79,7.65,20.17,34.17,24.27,38.26.38.38,24.92,2,31.56,1.67s12.18-1.08,18.64-1.07c2.61-3.23,5.51-9.79,7.77-12.75,3.22-4.23,5.66-8.85,8.8-13.12,4-5.4,4.59-6.93,8.3-12.45"/><path class="cls-6" d="M231.23,146.58c1.56,4.73,7.86,17.24,10,21.31,3.05,5.81,12.61,16.76,15.44,22.57.4.82,27.56,3,35.73,1.85,6.72-1,13.77-.78,20.37-1.22-.79-1,14.51-23.58,18.24-28.86,2.83-4,10.15-13.17,10.56-13.58"/><path class="cls-6" d="M346.48,147.9c-4.66,6.41-7.62,9.16-12.07,15.84-4.66,7-20.37,31.31-20.37,31.31s-.27,1-6.14.94c-5,0-40.26.74-52.9-.75-3.64-.43-4.34-4.6-6.49-7.78-2.93-4.34-23.25-37-24.16-40.46"/><path class="cls-7" d="M241,146.11c2.07-3.4,10.23-18,12.54-21,2.71-3.54,5.38-8.54,9-13,15.22-1.22,45,1.59,45.2,2.1,1.46,4.19,10.41,15.29,11.89,17.4,3.85,5.46,10.53,16.31,10,16.2"/><path class="cls-7" d="M235.57,147.9c2.79-7.25,20.05-35.64,24.14-39.52.38-.36,24.92-.44,31.56-.15s12.18,1.38,18.64,1.37c2.61,3.06,5.51,7.49,7.77,10.3,3.22,4,5.66,8.38,8.8,12.43,4,5.12,5,10,8.68,15.18"/><path class="cls-7" d="M230.47,145.75c1.56-4.48,8.61-16.34,10.75-20.2,3.05-5.51,12.61-15.88,15.44-21.39.4-.78,27.56-1.06,35.73,0,6.72.9,13.77.74,20.37,1.15-.79,1,13.38,20.57,17.11,25.56,2.83,3.79,10.71,17.31,11.13,17.7"/><path class="cls-7" d="M346.29,148.25c-4.66-6.07-7.43-12.43-11.88-18.77-4.66-6.63-21.33-28-21.33-28s-.27-.9-6.14-.89c-5,0-34.75-1.65-51.94-1-1.23,0-4.34,4.36-6.49,7.38-2.93,4.11-23,35.77-23.88,39"/></g><path class="cls-3" d="M20.55,98.15c2.3,4,4.19,10.61,6.27,14,2.3,3.76,5.07,7,7.64,10.55,3,4.14,6.38,10.36,10.41,15.53,13-1.23,49.91-1,50.11-1.57,1.62-4.9,11.12-19.14,12.76-21.61,4.26-6.39,11.63-17,11-16.85"/><path class="cls-3" d="M14.69,100.66c-.23-.44.26-.71-.35-.8,3.09,8.48,22.36,37.88,26.9,42.41.42.42,27.63.51,35,.17s13.5-1.61,20.67-1.61c2.89-3.58,6.11-8.76,8.61-12,3.57-4.69,6.27-9.81,9.75-14.54,4.39-6,5.09-10.11,9.2-16.22"/><path class="cls-3" d="M9.68,98.57c1.72,5.24,8.71,19.11,11.08,23.63,3.38,6.44,14,18.57,17.12,25,.44.91,30.55,1.24,39.6,0,7.44-1.06,15.26-.87,22.58-1.35-.87-1.15,16.09-24.05,20.22-29.9,3.13-4.43,10.73-17.27,11.19-17.72"/><path class="cls-3" d="M136.39,98.21c-5.16,7.1-7.4,12-12.34,19.39-5.17,7.75-22.16,32.62-22.16,32.62s-.3,1.06-6.81,1c-5.52,0-45,.92-59.06-.75-4-.48-4.81-3.1-7.19-6.63C25.58,139.07,3.06,102.83,2,99"/><path class="cls-4" d="M20.55,98c2.3-3.77,11.34-19.92,13.9-23.28,3-3.92,6-9.47,10-14.36,15.2-.1,49.91,1.77,50.11,2.33,1.62,4.65,11.54,17,13.18,19.29,4.26,6.06,12,9.53,11.42,9.41"/><path class="cls-4" d="M14.48,100c3.09-8,22.23-39.5,26.76-43.8.42-.4,27.63-.49,35-.16s13.5,1.53,20.67,1.52C99.8,61,103,65.89,105.51,69c3.57,4.44,6.27,9.29,9.75,13.78,4.39,5.67,4.1,6.67,8.21,12.47"/><path class="cls-4" d="M8.84,97.65c1.72-5,9.54-18.11,11.92-22.39,3.38-6.1,14-17.61,17.12-23.71.44-.86,30.55-1.18,39.6,0,7.44,1,15.26.82,22.58,1.28C99.19,54,114.9,75.66,119,81.2c3.13,4.2,8.08,13.2,8.54,13.63"/><path class="cls-4" d="M135.22,96.58c-5.16-6.73-6.23-9.94-11.17-17-5.17-7.35-21.75-32.19-21.75-32.19s-.3-1-6.81-1L36,46.52c-4.06,0-4.81,4.83-7.19,8.18C25.58,59.26,3.37,94.34,2.36,97.94"/><g class="cls-12"><path class="cls-6" d="M25.36,47.58c2.07,3.58,3.78,9.57,5.65,12.63,2.08,3.39,4.57,6.33,6.89,9.52,2.71,3.74,5.75,9.35,9.39,14,11.76-1.11,45-.89,45.2-1.42C94,77.89,102.53,65,104,62.82c3.85-5.77,10.34-12.91,9.81-12.8"/><path class="cls-6" d="M20.08,49.84c-.21-.39.24-.64-.31-.72C22.56,56.76,39.94,83.28,44,87.37c.38.38,24.92.46,31.56.16s11.46.37,17.92.37c2.61-3.23,6.23-9.72,8.49-12.69,3.22-4.23,5.66-8.85,8.8-13.12,4-5.4,4.59-6.93,8.3-12.45"/><path class="cls-6" d="M15.56,48c1.56,4.73,7.86,17.24,10,21.31C28.6,75.08,38.16,86,41,91.84c.4.82,48.85.68,55.45.25-.79-1,15.16-23.2,18.89-28.48,2.83-4,10.15-13.17,10.56-13.58"/><path class="cls-6" d="M130.8,49.27c-4.66,6.41-7.62,9.16-12.07,15.84-4.66,7-20.41,31.52-20.41,31.52s-.66-1.37-6.53-1.38c-5,0-38.84.6-51.8.6-.84,0-5-5.6-7.11-8.78C30,82.73,9.58,51.79,8.67,48.37"/><path class="cls-7" d="M25.36,47.48c2.07-3.4,10.23-18,12.54-21,2.71-3.54,5.38-8.54,9-13,13.72-.09,45,1.59,45.2,2.1C93.58,19.82,102.53,30.92,104,33c3.85,5.46,10.53,16.31,10,16.2"/><path class="cls-7" d="M19.89,49.27C22.68,42,39.94,13.64,44,9.76,44.42,9.4,69,9.32,75.6,9.61S87.78,11,94.24,11c2.61,3.06,5.51,7.49,7.77,10.3,3.22,4,5.66,8.38,8.8,12.43,4,5.12,5,10,8.68,15.18"/><path class="cls-7" d="M14.8,47.12c1.56-4.48,8.61-16.34,10.75-20.2C28.6,21.41,38.16,11,41,5.53c.4-.78,27.56-1.06,35.73,0,6.72.9,13.77.74,20.37,1.15-.79,1,13.38,20.57,17.11,25.56C117,36.07,124.92,49.6,125.33,50"/><path class="cls-7" d="M130.62,49.63c-4.66-6.07-7.43-12.43-11.88-18.77-4.66-6.63-19.62-29-19.62-29S98.85.91,93,.92L39.32,1C35.66,1,35,5.36,32.83,8.37c-2.93,4.11-23,35.77-23.88,39"/><path class="cls-6" d="M27,146.2c2.07,3.58,3.78,9.57,5.65,12.63,2.08,3.39,4.57,6.33,6.89,9.52,2.71,3.74,5.38,9,9,13.63,11.76-1.11,45-.89,45.2-1.42,1.46-4.42,10.41-16.89,11.89-19.11,3.85-5.77,10.34-12.91,9.81-12.8"/><path class="cls-6" d="M21.76,148.47c-.21-.39.24-.64-.31-.72,2.79,7.65,20.17,34.17,24.27,38.26.38.38,24.92,2,31.56,1.67s12.18-1.08,18.64-1.07c2.61-3.23,5.51-9.79,7.77-12.75,3.22-4.23,5.66-8.85,8.8-13.12,4-5.4,4.59-6.93,8.3-12.45"/><path class="cls-6" d="M17.23,146.58c1.56,4.73,7.86,17.24,10,21.31,3.05,5.81,12.61,16.76,15.44,22.57.4.82,27.56,3,35.73,1.85,6.72-1,13.77-.78,20.37-1.22-.79-1,14.51-23.58,18.24-28.86,2.83-4,10.15-13.17,10.56-13.58"/><path class="cls-6" d="M132.48,147.9c-4.66,6.41-7.62,9.16-12.07,15.84-4.66,7-20.37,31.31-20.37,31.31s-.27,1-6.14.94c-5,0-40.26.74-52.9-.75-3.64-.43-4.34-4.6-6.49-7.78-2.93-4.34-23.25-37-24.16-40.46"/><path class="cls-7" d="M27,146.11c2.07-3.4,10.23-18,12.54-21,2.71-3.54,5.38-8.54,9-13,15.22-1.22,45,1.59,45.2,2.1,1.46,4.19,10.41,15.29,11.89,17.4,3.85,5.46,10.53,16.31,10,16.2"/><path class="cls-7" d="M21.57,147.9c2.79-7.25,20.05-35.64,24.14-39.52.38-.36,24.92-.44,31.56-.15s12.18,1.38,18.64,1.37c2.61,3.06,5.51,7.49,7.77,10.3,3.22,4,5.66,8.38,8.8,12.43,4,5.12,5,10,8.68,15.18"/><path class="cls-7" d="M16.47,145.75c1.56-4.48,8.61-16.34,10.75-20.2,3.05-5.51,12.61-15.88,15.44-21.39.4-.78,27.56-1.06,35.73,0,6.72.9,12.54.1,19.15.51,1.71,3.35,14.61,21.21,18.33,26.2,2.83,3.79,10.71,17.31,11.13,17.7"/><path class="cls-7" d="M132.29,148.25c-4.66-6.07-7.43-12.43-11.88-18.77-4.66-6.63-21.33-28-21.33-28s-.27-.9-6.14-.89c-5,0-34.75-1.65-51.94-1-1.23,0-4.34,4.36-6.49,7.38-2.93,4.11-23,35.77-23.88,39"/></g><path class="cls-3" d="M237,317c2.3,4,1.78,6.81,3.85,10.2,2.3,3.76,5.07,7,7.64,10.55,3,4.14,6.38,10.36,10.41,15.53,13-1.23,49.91-1,50.11-1.57,1.62-4.9,11.12-19.14,12.76-21.61,4.26-6.39,11.46-14.31,10.88-14.19"/><path class="cls-3" d="M229.56,317.37c-.23-.44-.14-.86-.75-.94,3.09,8.48,21.91,36.31,26.45,40.85.42.42,27.63.51,35,.17s13.5-1.61,20.67-1.61c2.89-3.58,6.11-8.76,8.61-12,3.57-4.69,6.27-9.81,9.75-14.54,4.39-6,5.09-7.69,9.2-13.8"/><path class="cls-3" d="M223.68,315.48c1.72,5.24,8.71,17.2,11.08,21.72,3.38,6.44,14,18.57,17.12,25,.44.91,30.55,1.24,39.6,0,7.44-1.06,15.26-.87,22.58-1.35-.87-1.15,16.09-24.05,20.22-29.9,3.13-4.43,11.25-14.6,11.71-15.05"/><path class="cls-3" d="M351.43,315c-5.16,7.1-8.44,10.15-13.38,17.56-5.17,7.75-22.16,32.62-22.16,32.62s-.3,1.06-6.81,1c-5.52,0-45,2.92-59.06,1.25-4-.48-4.81-5.1-7.19-8.63-3.25-4.81-25.06-39.06-26.07-42.85"/><path class="cls-4" d="M234.55,314.21c2.3-3.77,11.34-21.09,13.9-24.44,3-3.92,6-9.47,10-14.36,15.2-.1,49.91,1.77,50.11,2.33,1.62,4.65,11.54,17,13.18,19.29,4.26,6.06,11.67,18.08,11.09,18"/><path class="cls-4" d="M229.07,314.57c3.09-8,21.65-39,26.18-43.34.42-.4,27.63-.49,35-.16s13.5,1.53,20.67,1.52c2.89,3.4,6.11,8.3,8.61,11.42,3.57,4.44,6.27,9.29,9.75,13.78,4.39,5.67,5.51,11,9.62,16.83"/><path class="cls-4" d="M223.68,314.15c1.72-5,8.71-19.61,11.08-23.9,3.38-6.1,14-17.61,17.12-23.71.44-.86,30.55-1.18,39.6,0,7.44,1,15.26.82,22.58,1.28-.87,1.09,14.84,22.8,19,28.34,3.13,4.2,11.88,19.19,12.34,19.62"/><path class="cls-4" d="M351.22,315.42c-5.16-6.73-8.23-13.78-13.17-20.81-5.17-7.35-21.75-32.19-21.75-32.19s-.13.94-6.63.95c-5.52,0-43.91-1-58.75-.94-4.06,0-4.31,3.68-6.7,7-3.25,4.56-26.86,41.1-27.87,44.69"/><g class="cls-13"><path class="cls-6" d="M239.36,262.58c2.07,3.58,3.78,9.57,5.65,12.63,2.08,3.39,4.57,6.33,6.89,9.52,2.71,3.74,5.75,9.35,9.39,14,11.76-1.11,45-.89,45.2-1.42,1.46-4.42,10-17.27,11.52-19.49,3.85-5.77,10.34-12.91,9.81-12.8"/><path class="cls-6" d="M234.08,264.84c-.21-.39.24-.64-.31-.72,2.79,7.65,20.17,34.17,24.27,38.26.38.38,24.92.46,31.56.16s11.46.37,17.92.37c2.61-3.23,6.23-9.72,8.49-12.69,3.22-4.23,5.66-8.85,8.8-13.12,4-5.4,4.59-6.93,8.3-12.45"/><path class="cls-6" d="M229.56,263c1.56,4.73,7.86,17.24,10,21.31,3.05,5.81,12.61,16.76,15.44,22.57.4.82,48.85.68,55.45.25-.79-1,15.16-23.2,18.89-28.48,2.83-4,10.15-13.17,10.56-13.58"/><path class="cls-6" d="M344.8,264.27c-4.66,6.41-7.62,9.16-12.07,15.84-4.66,7-20.41,31.52-20.41,31.52s-.27,1-6.14.94c-5,0-39.22-1.73-52.19-1.73-.84,0-5-5.6-7.11-8.78-2.93-4.34-23.3-35.28-24.21-38.7"/><path class="cls-7" d="M239.36,262.48c2.07-3.4,10.23-18,12.54-21,2.71-3.54,5.38-8.54,9-13,13.72-.09,45,1.59,45.2,2.1,1.46,4.19,10.41,15.29,11.89,17.4,3.85,5.46,10.53,16.31,10,16.2"/><path class="cls-7" d="M233.89,264.27c2.79-7.25,20.05-35.64,24.14-39.52.38-.36,24.92-.44,31.56-.15S301.78,226,308.24,226c2.61,3.06,5.51,7.49,7.77,10.3,3.22,4,5.66,8.38,8.8,12.43,4,5.12,5,10,8.68,15.18"/><path class="cls-7" d="M228.8,262.12c1.56-4.48,8.61-16.34,10.75-20.2,3.05-5.51,12.61-15.88,15.44-21.39.4-.78,27.56-1.06,35.73,0,6.72.9,13.77.74,20.37,1.15-.79,1,13.38,20.57,17.11,25.56,2.83,3.79,10.71,17.31,11.13,17.7"/><path class="cls-7" d="M344.62,264.63c-4.66-6.07-7.43-12.43-11.88-18.77-4.66-6.63-19.62-29-19.62-29s-.27-.9-6.14-.89l-53.65.08c-3.66,0-4.34,4.36-6.49,7.38-2.93,4.11-23,35.77-23.88,39"/><path class="cls-6" d="M241,361.2c2.07,3.58,3.78,9.57,5.65,12.63,2.08,3.39,4.57,6.33,6.89,9.52,2.71,3.74,5.38,9,9,13.63,11.76-1.11,45-.89,45.2-1.42,1.46-4.42,10.41-16.89,11.89-19.11,3.85-5.77,10.34-12.91,9.81-12.8"/><path class="cls-6" d="M235.76,363.47c-.21-.39.24-.64-.31-.72,2.79,7.65,20.17,34.17,24.27,38.26.38.38,24.92,2,31.56,1.67s12.18-1.08,18.64-1.07c2.61-3.23,5.51-9.79,7.77-12.75,3.22-4.23,5.66-8.85,8.8-13.12,4-5.4,4.59-6.93,8.3-12.45"/><path class="cls-6" d="M231.23,361.58c1.56,4.73,7.86,17.24,10,21.31,3.05,5.81,12.61,16.76,15.44,22.57.4.82,27.56,3,35.73,1.85,6.72-1,13.77-.78,20.37-1.22-.79-1,14.51-23.58,18.24-28.86,2.83-4,10.15-13.17,10.56-13.58"/><path class="cls-6" d="M346.48,362.9c-4.66,6.41-7.62,9.16-12.07,15.84-4.66,7-20.37,31.31-20.37,31.31s-.27,1-6.14.94c-5,0-40.26.74-52.9-.75-3.64-.43-4.34-4.6-6.49-7.78-2.93-4.34-23.25-37-24.16-40.46"/><path class="cls-7" d="M241,361.11c2.07-3.4,10.23-18,12.54-21,2.71-3.54,5.38-8.54,9-13,15.22-1.22,45,1.59,45.2,2.1,1.46,4.19,10.41,15.29,11.89,17.4,3.85,5.46,10.53,16.31,10,16.2"/><path class="cls-7" d="M235.57,362.9c2.79-7.25,20.05-35.64,24.14-39.52.38-.36,24.92-.44,31.56-.15s12.18,1.38,18.64,1.37c2.61,3.06,5.51,7.49,7.77,10.3,3.22,4,5.66,8.38,8.8,12.43,4,5.12,5,10,8.68,15.18"/><path class="cls-7" d="M230.47,360.75c1.56-4.48,8.61-16.34,10.75-20.2,3.05-5.51,12.61-15.88,15.44-21.39.4-.78,27.56-1.06,35.73,0,6.72.9,13.77.74,20.37,1.15-.79,1,13.38,20.57,17.11,25.56,2.83,3.79,10.71,17.31,11.13,17.7"/><path class="cls-7" d="M346.29,363.25c-4.66-6.07-7.43-12.43-11.88-18.77-4.66-6.63-21.33-28-21.33-28s-.27-.9-6.14-.89c-5,0-35.7-.8-52.89-.16-1.23,0-3.39,3.5-5.54,6.52-2.93,4.11-23,35.77-23.88,39"/></g><path class="cls-3" d="M20.55,313.15c2.3,4,4.19,10.61,6.27,14,2.3,3.76,5.07,7,7.64,10.55,3,4.14,6.38,10.36,10.41,15.53,13-1.23,49.91-1,50.11-1.57,1.62-4.9,11.12-19.14,12.76-21.61,4.26-6.39,11.46-14.31,10.88-14.19"/><path class="cls-3" d="M14.69,315.66c-.23-.44.26-.71-.35-.8,3.09,8.48,22.36,37.88,26.9,42.41.42.42,27.63.51,35,.17s13.5-1.61,20.67-1.61c2.89-3.58,6.11-8.76,8.61-12,3.57-4.69,6.27-9.81,9.75-14.54,4.39-6,5.09-7.69,9.2-13.8"/><path class="cls-3" d="M9.68,313.57c1.72,5.24,8.71,19.11,11.08,23.63,3.38,6.44,14,18.57,17.12,25,.44.91,30.55,1.24,39.6,0,7.44-1.06,15.26-.87,22.58-1.35-.87-1.15,16.09-24.05,20.22-29.9,3.13-4.43,11.25-14.6,11.71-15.05"/><path class="cls-3" d="M136.5,316.3c-5.16,7.1-7.51,8.88-12.45,16.29-5.17,7.75-22.16,32.62-22.16,32.62s-.3,1.06-6.81,1c-5.52,0-45,2.92-59.06,1.25-4-.48-4.81-5.1-7.19-8.63C25.58,354.07,3.06,317.83,2,314"/><path class="cls-4" d="M20.55,313c2.3-3.77,11.34-19.92,13.9-23.28,3-3.92,6-9.47,10-14.36,15.2-.1,49.91,1.77,50.11,2.33,1.62,4.65,11.54,17,13.18,19.29,4.26,6.06,11.48,18,10.89,17.83"/><path class="cls-4" d="M14.48,315c3.09-8,22.23-39.5,26.76-43.8.42-.4,27.63-.49,35-.16s13.5,1.53,20.67,1.52c2.89,3.4,6.11,8.3,8.61,11.42,3.57,4.44,13.71,23.78,17.82,29.57"/><path class="cls-4" d="M8.84,312.65c1.72-5,9.54-18.11,11.92-22.39,3.38-6.1,14-17.61,17.12-23.71.44-.86,30.55-1.18,39.6,0,7.44,1,15.26.82,22.58,1.28,1.53,2.06,14.84,22.8,19,28.34,3.13,4.2,10.5,17.85,11,18.28"/><path class="cls-4" d="M136.39,315c-5.16-6.73-7.4-13.39-12.34-20.42-5.17-7.35-21-31-21-31s-6.15-.16-12.66-.15c-5.52,0-40-.86-54.87-.85-4.06,0-4.33,3.77-6.72,7.12-3.25,4.56-25.46,39.65-26.47,43.25"/><g class="cls-14"><path class="cls-6" d="M25.36,262.58c2.07,3.58,3.78,9.57,5.65,12.63,2.08,3.39,4.57,6.33,6.89,9.52,2.71,3.74,5.75,9.35,9.39,14,11.76-1.11,45-.89,45.2-1.42,1.46-4.42,10-17.27,11.52-19.49,3.85-5.77,10.34-12.91,9.81-12.8"/><path class="cls-6" d="M20.08,264.84c-.21-.39.24-.64-.31-.72,2.79,7.65,20.17,34.17,24.27,38.26.38.38,24.92.46,31.56.16s11.46.37,17.92.37c2.61-3.23,6.23-9.72,8.49-12.69,3.22-4.23,5.66-8.85,8.8-13.12,4-5.4,4.59-6.93,8.3-12.45"/><path class="cls-6" d="M15.56,263c1.56,4.73,7.86,17.24,10,21.31C28.6,290.08,38.16,301,41,306.84c.4.82,48.85.68,55.45.25-.79-1,15.16-23.2,18.89-28.48,2.83-4,10.15-13.17,10.56-13.58"/><path class="cls-6" d="M130.8,264.27c-4.66,6.41-7.62,9.16-12.07,15.84-4.66,7-20.41,31.52-20.41,31.52s-.27,1-6.14.94c-5,0-39.22-1.73-52.19-1.73-.84,0-5-5.6-7.11-8.78-2.93-4.34-23.3-35.28-24.21-38.7"/><path class="cls-7" d="M25.36,262.48c2.07-3.4,10.23-18,12.54-21,2.71-3.54,5.38-8.54,9-13,13.72-.09,45,1.59,45.2,2.1,1.46,4.19,10.41,15.29,11.89,17.4,3.85,5.46,10.53,16.31,10,16.2"/><path class="cls-7" d="M19.89,264.27C22.68,257,39.94,228.64,44,224.76c.38-.36,24.92-.44,31.56-.15S87.78,226,94.24,226c2.61,3.06,5.51,7.49,7.77,10.3,3.22,4,5.66,8.38,8.8,12.43,4,5.12,5,10,8.68,15.18"/><path class="cls-7" d="M14.8,262.12c1.56-4.48,8.61-16.34,10.75-20.2C28.6,236.41,38.16,226,41,220.53c.4-.78,27.56-1.06,35.73,0,6.72.9,13.77.74,20.37,1.15-.79,1,13.38,20.57,17.11,25.56,2.83,3.79,10.71,17.31,11.13,17.7"/><path class="cls-7" d="M130.62,264.63c-4.66-6.07-7.43-12.43-11.88-18.77-4.66-6.63-19.62-29-19.62-29s-.27-.9-6.14-.89L39.32,216c-3.66,0-4.34,4.36-6.49,7.38-2.93,4.11-23,35.77-23.88,39"/><path class="cls-6" d="M27,361.2c2.07,3.58,3.78,9.57,5.65,12.63,2.08,3.39,4.57,6.33,6.89,9.52,2.71,3.74,5.38,9,9,13.63,11.76-1.11,45-.89,45.2-1.42,1.46-4.42,10.41-16.89,11.89-19.11,3.85-5.77,10.34-12.91,9.81-12.8"/><path class="cls-6" d="M21.76,363.47c-.21-.39.24-.64-.31-.72,2.79,7.65,20.17,34.17,24.27,38.26.38.38,24.92,2,31.56,1.67s12.18-1.08,18.64-1.07c2.61-3.23,5.51-9.79,7.77-12.75,3.22-4.23,5.66-8.85,8.8-13.12,4-5.4,4.59-6.93,8.3-12.45"/><path class="cls-6" d="M17.23,361.58c1.56,4.73,7.86,17.24,10,21.31,3.05,5.81,12.61,16.76,15.44,22.57.4.82,27.56,3,35.73,1.85,6.72-1,13.77-.78,20.37-1.22-.79-1,14.51-23.58,18.24-28.86,2.83-4,10.15-13.17,10.56-13.58"/><path class="cls-6" d="M132.48,362.9c-4.66,6.41-7.62,9.16-12.07,15.84-4.66,7-20.37,31.31-20.37,31.31s-.27,1-6.14.94c-5,0-40.26.74-52.9-.75-3.64-.43-4.34-4.6-6.49-7.78-2.93-4.34-23.25-37-24.16-40.46"/><path class="cls-7" d="M27,361.11c2.07-3.4,10.23-18,12.54-21,2.71-3.54,5.38-8.54,9-13,15.22-1.22,45,1.59,45.2,2.1,1.46,4.19,10.41,15.29,11.89,17.4,3.85,5.46,10.53,16.31,10,16.2"/><path class="cls-7" d="M21.57,362.9c2.79-7.25,20.05-35.64,24.14-39.52.38-.36,24.92-.44,31.56-.15s12.18,1.38,18.64,1.37c2.61,3.06,5.51,7.49,7.77,10.3,3.22,4,5.66,8.38,8.8,12.43,4,5.12,5,10,8.68,15.18"/><path class="cls-7" d="M16.47,360.75c1.56-4.48,8.61-16.34,10.75-20.2,3.05-5.51,12.61-15.88,15.44-21.39.4-.78,27.56-1.06,35.73,0,6.72.9,13.77.74,20.37,1.15-.79,1,13.38,20.57,17.11,25.56,2.83,3.79,10.71,17.31,11.13,17.7"/><path class="cls-7" d="M132.29,363.25c-4.66-6.07-7.43-12.43-11.88-18.77-4.66-6.63-21.33-28-21.33-28a82,82,0,0,1-11.16.84c-5,0-29.73-3.38-46.92-2.74-1.23,0-4.34,4.36-6.49,7.38-2.93,4.11-23,35.77-23.88,39"/></g></g></symbol></defs><title>Asset 2</title><g id="Layer_2" data-name="Layer 2"><g id="Camada_1" data-name="Camada 1"><use id="New_Symbol-3" data-name="New Symbol" width="352.48" height="412.13" xlink:href="#New_Symbol"/></g></g></svg>